<?xml version="1.0" encoding="utf-8"?>
<!-- Generator: Adobe Illustrator 16.0.0, SVG Export Plug-In . SVG Version: 6.00 Build 0)  -->
<!DOCTYPE svg PUBLIC "-//W3C//DTD SVG 1.1//EN" "http://www.w3.org/Graphics/SVG/1.1/DTD/svg11.dtd">
<svg version="1.1" id="Layer_1" xmlns="http://www.w3.org/2000/svg" xmlns:xlink="http://www.w3.org/1999/xlink" x="0px" y="0px"
	 width="578.799px" height="578.8px" viewBox="305.875 47.356 578.799 578.8" enable-background="new 305.875 47.356 578.799 578.8"
	 xml:space="preserve">
<g>
	<path d="M595.275,47.356c-6.393,0-12.743,0.226-19.013,0.637c-8.697,0.571-15.285,8.084-14.715,16.782
		c0.544,8.287,7.417,14.734,15.723,14.749c0.349,0,0.698-0.021,1.048-0.041c5.611-0.37,11.264-0.555,16.957-0.555
		c142.395,0,257.829,115.434,257.829,257.829c0,142.396-115.435,257.829-257.829,257.829c-8.042,0-15.965-0.484-23.822-1.208
		c-2.21-0.2-4.403-0.495-6.608-0.755c-23.782-2.761-47.059-8.846-69.148-18.077c-0.838-0.354-1.665-0.766-2.503-1.131
		c-6.479-2.807-12.819-5.863-19.018-9.172c-1.156-0.617-2.297-1.249-3.442-1.881c-21.09-11.665-40.449-26.214-57.521-43.225
		l-0.581-0.606c-5.304-5.331-10.349-10.919-15.179-16.695c-0.72-0.868-1.429-1.742-2.143-2.615
		c-15.133-18.565-27.607-39.147-37.064-61.153c-0.545-1.262-1.007-2.559-1.531-3.833c-2.39-5.835-4.568-11.775-6.536-17.82
		c-0.679-2.086-1.327-4.178-1.947-6.274c-10.141-33.848-13.176-69.426-8.915-104.501c1.02-8.658-5.157-16.509-13.813-17.553
		c-8.623-0.898-16.398,5.22-17.554,13.812c-1.378,11.569-2.07,23.209-2.074,34.86c0,3.206,0.041,6.393,0.144,9.537
		c0.104,0.622,0.249,1.236,0.432,1.84c0.807,20.965,3.901,41.778,9.229,62.07c0.001,0.644,0.042,1.286,0.124,1.924
		c0.631,2.359,1.484,4.664,2.179,7.009c0.704,2.358,1.434,4.704,2.188,7.035c2.199,6.762,4.644,13.425,7.333,19.988
		c0.586,1.432,1.104,2.894,1.716,4.312c0.509,1.197,0.92,2.441,1.444,3.628c0.369,0.697,0.793,1.364,1.27,1.993
		c8.596,18.843,19.192,36.706,31.606,53.284c0.277,0.715,0.61,1.406,0.997,2.068c1.993,2.633,4.213,5.112,6.3,7.687
		c0.791,0.972,1.578,1.94,2.384,2.898c5.432,6.508,11.109,12.8,17.091,18.805l0.596,0.621c1.059,1.057,2.029,2.207,3.104,3.245
		c0.511,0.381,1.046,0.726,1.604,1.033c15.075,14.372,31.651,27.082,49.442,37.911c0.555,0.591,1.156,1.136,1.798,1.629
		c2.78,1.655,5.684,3.078,8.51,4.641c1.377,0.766,2.754,1.521,4.146,2.261c6.859,3.644,13.817,6.999,20.873,10.069
		c1.084,0.47,2.132,0.999,3.227,1.456c1.033,0.432,2.04,0.966,3.078,1.388c0.496,0.124,0.999,0.222,1.505,0.293
		c19.65,7.813,40.104,13.429,60.989,16.746c0.585,0.257,1.186,0.477,1.799,0.658c3.278,0.503,6.618,0.744,9.927,1.136
		c2.575,0.309,5.129,0.647,7.724,0.887c8.858,0.81,17.754,1.349,26.643,1.349c159.831,0,289.4-129.568,289.4-289.399
		S755.105,47.357,595.275,47.356L595.275,47.356L595.275,47.356z"/>
	<path d="M461.983,97.22c3.768,7.836,13.175,11.133,21.011,7.366c0.019-0.009,0.038-0.019,0.058-0.028
		c11.911-5.745,24.245-10.568,36.895-14.429c8.338-2.561,13.021-11.396,10.46-19.734c-2.554-8.312-11.346-12.997-19.669-10.48
		c-14.2,4.344-28.047,9.772-41.416,16.237c-7.84,3.78-11.132,13.201-7.352,21.041C461.974,97.202,461.978,97.211,461.983,97.22z"/>
	<path d="M363.488,190.412c-7.63-4.204-17.224-1.447-21.458,6.167c-7.2,12.997-13.392,26.526-18.52,40.471
		c-3.008,8.185,1.188,17.258,9.373,20.266c8.185,3.008,17.258-1.188,20.266-9.373c4.57-12.429,10.088-24.488,16.505-36.072
		C373.866,204.241,371.108,194.642,363.488,190.412z"/>
	<path d="M404.205,163.609c8.89-9.792,18.509-18.896,28.775-27.234c6.766-5.494,7.796-15.433,2.302-22.198
		s-15.433-7.796-22.198-2.302l0,0c-11.524,9.346-22.313,19.563-32.27,30.564c-5.86,6.446-5.387,16.422,1.06,22.283
		c6.445,5.861,16.422,5.387,22.282-1.059C404.173,163.645,404.189,163.627,404.205,163.609z"/>
	<path d="M369.017,336.756c0,124.959,101.299,226.258,226.258,226.258s226.258-101.299,226.258-226.258
		c0-124.958-101.299-226.258-226.258-226.258C470.36,110.604,369.123,211.841,369.017,336.756z M579.49,189.425
		c0-8.718,7.067-15.786,15.785-15.786s15.785,7.067,15.785,15.786V330.23l79.559,79.559c6.104,6.185,6.104,16.127,0,22.311
		c-6.144,6.162-16.119,6.176-22.28,0.031c-0.011-0.011-0.021-0.021-0.031-0.031l-84.188-84.188
		c-2.962-2.957-4.627-6.97-4.631-11.155L579.49,189.425z"/>
</g>
</svg>
