<?xml version="1.0" encoding="utf-8"?>
<!-- Generator: Adobe Illustrator 16.0.0, SVG Export Plug-In . SVG Version: 6.00 Build 0)  -->
<!DOCTYPE svg PUBLIC "-//W3C//DTD SVG 1.1//EN" "http://www.w3.org/Graphics/SVG/1.1/DTD/svg11.dtd">
<svg version="1.1" id="Layer_1" xmlns="http://www.w3.org/2000/svg" xmlns:xlink="http://www.w3.org/1999/xlink" x="0px" y="0px"
	 width="515.827px" height="579.95px" viewBox="332.378 74.213 515.827 579.95"
	 enable-background="new 332.378 74.213 515.827 579.95" xml:space="preserve">
<path d="M634.003,132.192l14.665,27.746l30.938,5.359c5.115,0.877,8.478,5.749,7.674,10.792c-0.366,2.12-1.438,3.922-2.875,5.237
	l-21.583,22.192l4.482,31.108c0.755,5.116-2.802,9.793-7.917,10.548c-2.119,0.316-4.238-0.122-5.992-1.194l-27.625-13.544
	l-28.185,13.837c-4.604,2.241-10.231,0.365-12.473-4.312c-0.877-1.754-1.12-3.605-0.877-5.359l4.482-31.108l-21.899-22.509
	c-3.605-3.678-3.483-9.598,0.194-13.155c1.364-1.364,3.118-2.241,4.921-2.558l30.938-5.359l14.665-27.747
	c2.363-4.555,8.039-6.309,12.594-3.873c1.754,0.877,3.045,2.241,3.874,3.873L634.003,132.192z M634.32,172.728l-8.55-16.15
	l-8.355,15.834c-1.243,2.68-3.752,4.677-6.87,5.165l-18.026,3.118l12.473,12.789c2.119,2.046,3.313,5.042,2.874,8.161l-2.631,18.149
	l16.395-8.112c2.484-1.243,5.554-1.316,8.233,0l16.395,8.112l-2.631-18.149c-0.365-2.801,0.487-5.676,2.558-7.868l12.79-13.106
	l-18.026-3.118c-2.753-0.487-5.311-2.192-6.675-4.872L634.32,172.728z M738.97,278.182c7.989,10.986,14.47,23.069,19.074,36.296
	c5.115,14.714,7.868,30.256,7.868,46.334c0,38.61-15.664,73.644-41.022,99.1c-25.433,25.383-60.438,41.022-99.1,41.022
	c-38.66,0-73.713-15.712-99.101-41.022c-25.383-25.433-41.095-60.438-41.095-99.1c0-16.225,2.801-31.815,7.917-46.406
	c4.555-13.033,11.034-25.189,19.073-36.175c-5.48-7.479-10.23-15.518-14.152-24.02l-0.805-1.876
	c-26.431,31.254-39.731,69.839-39.731,108.455c0,42.898,16.395,85.872,49.208,118.682c32.74,32.74,75.714,49.134,118.682,49.134
	c42.971,0,85.941-16.394,118.682-49.134c32.813-32.813,49.134-75.758,49.134-118.682c0-38.611-13.228-77.198-39.658-108.455
	l-0.877,1.876c-3.873,8.478-8.6,16.516-14.104,23.946L738.97,278.182z M524.943,292.969c-5.676,8.478-10.354,17.783-13.837,27.625
	c-4.36,12.545-6.796,26.065-6.796,40.219c0,33.544,13.593,63.921,35.614,85.872c21.948,21.948,52.325,35.542,85.873,35.542
	c33.544,0,63.921-13.594,85.872-35.542c22.021-21.948,35.542-52.325,35.542-85.872c0-14.032-2.314-27.504-6.724-40.171
	c-3.557-9.987-8.233-19.195-13.91-27.697c-3.118,3.24-6.357,6.31-9.792,9.233c-4.994,4.312-8.989,9.16-11.791,14.47
	c-2.801,5.359-4.604,11.229-5.237,17.515c-1.071,10.986-5.798,20.755-12.959,28.185v40.098c0,12.959-5.311,24.823-13.837,33.373
	l-0.561,0.561c-8.551,8.233-20.146,13.35-32.861,13.35h-27.43c-13.032,0-24.823-5.359-33.374-13.91
	c-8.599-8.551-13.91-20.39-13.91-33.374v-40.097c-7.161-7.43-11.985-17.223-13.032-28.185c-0.633-6.31-2.363-12.156-5.164-17.516
	c-2.802-5.311-6.797-10.231-11.79-14.47c-3.435-2.923-6.675-5.993-9.842-9.232L524.943,292.969z M436.563,97.164
	c-4.482-2.558-5.992-8.282-3.435-12.716c2.631-4.482,8.282-5.993,12.789-3.435l30.061,17.394c4.482,2.558,5.993,8.282,3.435,12.716
	c-2.631,4.482-8.282,5.993-12.789,3.435L436.563,97.164z M447.404,186.273c5.164,0,9.354,4.19,9.354,9.354
	c0,5.165-4.19,9.354-9.354,9.354h-34.738c-5.164,0-9.354-4.19-9.354-9.354c0-5.164,4.19-9.354,9.354-9.354H447.404z
	 M838.851,186.273c5.165,0,9.354,4.19,9.354,9.354c0,5.165-4.189,9.354-9.354,9.354h-34.737c-5.164,0-9.354-4.19-9.354-9.354
	c0-5.164,4.19-9.354,9.354-9.354H838.851z M805.623,81.012c4.482-2.558,10.158-1.072,12.79,3.435
	c2.558,4.434,1.071,10.158-3.436,12.716l-30.108,17.394c-4.434,2.558-10.158,1.072-12.717-3.435
	c-2.558-4.434-1.071-10.158,3.362-12.717L805.623,81.012z M583.484,374.308v28.185c0,7.868,3.19,14.957,8.354,20.146
	c5.165,5.164,12.278,8.429,20.195,8.429h27.43c7.673,0,14.665-3.045,19.95-8.16c5.433-5.433,8.6-12.546,8.6-20.39v-28.185
	c-4.799,1.632-9.988,2.558-15.274,2.558h-54.007c-5.358,0-10.475-0.926-15.273-2.558L583.484,374.308z M711.644,109.755
	c-21.948-21.948-52.325-35.542-85.873-35.542c-33.547,0-63.921,13.593-85.941,35.542c-21.948,21.948-35.541,52.326-35.541,85.873
	c0,18.149,3.995,35.372,11.107,50.815c7.431,16.029,18.222,30.256,31.498,41.607c6.87,5.798,12.278,12.545,16.225,19.951
	c3.922,7.43,6.357,15.591,7.235,24.385c0.682,7.357,4.116,13.788,9.159,18.393c5.043,4.555,11.839,7.356,19.269,7.356h54.008
	c7.43,0,14.152-2.802,19.195-7.356c5.043-4.604,8.478-11.035,9.232-18.393c0.877-8.721,3.313-16.955,7.235-24.385
	s9.354-14.153,16.15-19.951c13.276-11.352,24.142-25.579,31.547-41.607c7.113-15.469,11.035-32.667,11.035-50.815
	C747.185,162.083,733.592,131.706,711.644,109.755L711.644,109.755z M421.173,496.207l69.159,69.16l41.291-43.459
	c-13.472-7.917-26.187-17.588-37.734-29.184c-11.596-11.596-21.34-24.312-29.256-37.783l-43.459,41.291L421.173,496.207z
	 M477.493,578.962l-69.914-69.914l-61.047,58.051c-9.598,9.671-14.226,22.387-14.153,35.176
	c0.122,12.838,4.994,25.821,14.349,35.664l1.876,1.875c9.987,9.477,22.947,14.349,35.785,14.349
	c12.789,0.073,25.505-4.604,35.103-14.153L477.493,578.962z"/>
</svg>
