<?xml version="1.0" encoding="utf-8"?>
<!-- Generator: Adobe Illustrator 16.0.0, SVG Export Plug-In . SVG Version: 6.00 Build 0)  -->
<!DOCTYPE svg PUBLIC "-//W3C//DTD SVG 1.1//EN" "http://www.w3.org/Graphics/SVG/1.1/DTD/svg11.dtd">
<svg version="1.1" id="Layer_1" xmlns="http://www.w3.org/2000/svg" xmlns:xlink="http://www.w3.org/1999/xlink" x="0px" y="0px"
	 width="545.67px" height="545.669px" viewBox="317.44 91.339 545.67 545.669"
	 enable-background="new 317.44 91.339 545.67 545.669" xml:space="preserve">
<path d="M590.275,91.339c-150.449,0-272.835,122.386-272.835,272.835c0,150.448,122.386,272.834,272.835,272.834
	S863.11,514.622,863.11,364.174C863.11,213.725,740.724,91.339,590.275,91.339z M746.18,344.686c0,10.719-8.77,19.488-19.488,19.488
	s-19.488-8.77-19.488-19.488v-30.987l-83.603,83.604c-7.601,7.601-19.878,7.601-27.478,0l-25.14-25.14L467.893,475.253
	c-7.601,7.601-19.878,7.601-27.479,0c-7.6-7.601-7.601-19.878,0-27.478l116.93-116.93c7.601-7.601,19.878-7.601,27.478,0
	l25.14,25.14l69.964-69.964h-30.986c-10.719,0-19.488-8.769-19.488-19.488c0-10.719,8.77-19.488,19.488-19.488h77.953
	c10.523,0,19.488,8.769,19.488,19.488v77.953L746.18,344.686z"/>
</svg>
