<?xml version="1.0" encoding="utf-8"?>
<!-- Generator: Adobe Illustrator 16.0.0, SVG Export Plug-In . SVG Version: 6.00 Build 0)  -->
<!DOCTYPE svg PUBLIC "-//W3C//DTD SVG 1.1//EN" "http://www.w3.org/Graphics/SVG/1.1/DTD/svg11.dtd">
<svg version="1.1" id="Layer_1" xmlns="http://www.w3.org/2000/svg" xmlns:xlink="http://www.w3.org/1999/xlink" x="0px" y="0px"
	 width="604.036px" height="604.228px" viewBox="288.206 62.01 604.036 604.228"
	 enable-background="new 288.206 62.01 604.036 604.228" xml:space="preserve">
<path d="M737.019,62.106c-32.447,0-63.534,10.037-90.038,28.939l216.322,216.322c19.001-26.504,28.939-57.49,28.939-90.039
	c0-85.648-69.671-155.319-155.319-155.319L737.019,62.106z"/>
<path d="M737.019,372.648c32.448,0,63.535-10.036,90.039-28.939L610.642,127.387c-19.001,26.504-28.939,57.49-28.939,90.039
	c0,85.648,69.671,155.319,155.319,155.319L737.019,372.648z"/>
<path d="M760.112,624.436c-55.736,55.736-146.451,55.736-202.19,0l-96.368-96.368l150.056-150.056
	c34.592,27.187,78.146,43.361,125.404,43.361c7.016,0,14.031-0.391,21.047-1.072l2.047,2.046
	c55.639,55.736,55.639,146.358,0,202.092L760.112,624.436z"/>
<path d="M532.976,217.329c0-7.113,0.391-14.129,1.072-21.047l-1.949-1.949c-55.735-55.639-146.357-55.639-202.091,0
	c-55.735,55.736-55.735,146.451,0,202.19l96.368,96.369l150.057-150.057c-27.284-34.592-43.459-78.246-43.459-125.504
	L532.976,217.329z M401.136,357.258c-8.087,8.185-21.339,8.185-29.427,0l-1.267-1.268c-33.423-33.422-33.423-87.693,0-121.12
	c8.185-8.185,21.34-8.185,29.427,0c8.186,8.088,8.186,21.242,0,29.428c-17.149,17.149-17.149,45.116,0,62.265l1.267,1.267
	C409.322,335.918,409.322,349.17,401.136,357.258z"/>
</svg>
