<?xml version="1.0" encoding="utf-8"?>
<!-- Generator: Adobe Illustrator 16.0.0, SVG Export Plug-In . SVG Version: 6.00 Build 0)  -->
<!DOCTYPE svg PUBLIC "-//W3C//DTD SVG 1.1//EN" "http://www.w3.org/Graphics/SVG/1.1/DTD/svg11.dtd">
<svg version="1.1" id="Layer_1" xmlns="http://www.w3.org/2000/svg" xmlns:xlink="http://www.w3.org/1999/xlink" x="0px" y="0px"
	 width="561.522px" height="528.231px" viewBox="309.574 100.056 561.522 528.231"
	 enable-background="new 309.574 100.056 561.522 528.231" xml:space="preserve">
<path d="M791.711,100.06c32.082-0.024,61.047,19.293,73.325,48.94c12.302,29.646,5.53,63.796-17.174,86.478
	c-22.704,22.704-56.833,29.476-86.478,17.198c-29.646-12.302-48.965-41.242-48.94-73.351c0-43.775,35.493-79.269,79.269-79.269
	L791.711,100.06z M741.066,628.262v0.023c-21.364-0.268-41.899-8.429-57.612-22.898c-15.858-13.764-25.237-33.52-25.895-54.494
	c-0.438-16.395,6.018-32.229,17.783-43.653c10.427-10.694,24.726-16.76,39.659-16.784c12.229,0.438,24.044,4.434,34.056,11.474
	c9.549,6.479,15.761,16.833,17.027,28.307c0.707,7.405-4.726,13.958-12.106,14.665c-7.382,0.707-13.959-4.701-14.665-12.107
	c-0.683-3.8-2.948-7.137-6.236-9.159c-5.481-3.873-11.985-6.042-18.709-6.236c-7.625,0.194-14.884,3.41-20.194,8.916
	c-6.554,6.31-10.11,15.104-9.793,24.189c0.585,13.593,6.771,26.334,17.076,35.176c10.962,9.891,25.165,15.396,39.927,15.47
	c18.123-0.122,35.322-7.941,47.331-21.511c12.79-13.52,20.073-31.303,20.463-49.89c-0.098-21.754-9.11-42.484-24.945-57.368
	c-15.542-15.688-36.589-24.628-58.635-24.944h-226.5c-7.43,0-13.471-6.042-13.471-13.472c0-7.454,6.041-13.472,13.471-13.472h226.45
	c28.988,0.268,56.735,11.863,77.316,32.302c21.169,19.999,33.154,47.819,33.179,76.955c-0.292,25.432-10.109,49.841-27.503,68.405
	c-17.125,19.146-41.607,30.108-67.282,30.133L741.066,628.262z M444.408,421.225c7.454,0,13.472,6.042,13.472,13.472
	c0,7.454-6.017,13.472-13.472,13.472H323.046c-7.43,0-13.472-6.018-13.472-13.472c0-7.43,6.041-13.472,13.472-13.472H444.408z
	 M607.43,480.348H384.486c-7.527,0-13.618,6.114-13.618,13.642s6.09,13.617,13.618,13.617H607.43c7.43,0,13.472-6.041,13.472-13.472
	c0-7.43-6.042-13.472-13.472-13.472V480.348z M614.348,232.333c19.586-0.024,38.222,8.307,51.255,22.898
	c13.082,13.91,20.536,32.18,20.974,51.254c0,21.997-9.013,43.02-24.944,58.172c-15.566,15.444-36.517,24.238-58.44,24.458H359.979
	c-7.43,0-13.471-6.042-13.471-13.472c0-7.431,6.041-13.472,13.471-13.472h243.213c14.884-0.171,29.086-6.188,39.61-16.711
	c10.719-9.964,16.856-23.946,16.881-38.611c-0.268-12.424-5.164-24.287-13.714-33.3c-7.941-8.916-19.245-14.128-31.182-14.324
	c-9.769,0.17-19.123,3.922-26.31,10.523c-6.65,5.7-10.669,13.886-11.035,22.631c-0.219,5.53,1.925,10.865,5.92,14.665
	c3.118,3.265,7.405,5.164,11.912,5.311c3.995-0.195,7.845-1.511,11.084-3.824c1.486-0.853,2.533-2.266,2.947-3.922
	c0.683-7.381,7.235-12.813,14.617-12.131c7.381,0.707,12.813,7.235,12.131,14.641c-0.975,9.354-6.017,17.808-13.788,23.118
	c-7.868,5.529-17.197,8.647-26.82,8.988c-11.693-0.024-22.898-4.677-31.181-12.959c-9.258-9.014-14.324-21.51-13.959-34.445
	c0.512-16.151,7.723-31.376,19.902-42.021c12.01-11.035,27.697-17.223,44.019-17.394L614.348,232.333z M824.821,148.705
	l-48.817,48.818l-22.338-22.314c-1.097-1.096-2.583-1.705-4.142-1.705s-3.045,0.609-4.142,1.705c-2.119,2.363-2.119,5.944,0,8.307
	l26.505,26.431c1.071,1.121,2.558,1.754,4.116,1.754c1.535,0,3.021-0.633,4.117-1.754l52.935-52.935
	c1.242-1.072,1.998-2.582,2.07-4.239c0.073-1.632-0.535-3.215-1.681-4.385c-1.169-1.145-2.753-1.778-4.385-1.729
	C827.428,146.731,825.893,147.462,824.821,148.705L824.821,148.705z"/>
</svg>
