<?xml version="1.0" encoding="utf-8"?>
<!-- Generator: Adobe Illustrator 16.0.0, SVG Export Plug-In . SVG Version: 6.00 Build 0)  -->
<!DOCTYPE svg PUBLIC "-//W3C//DTD SVG 1.1//EN" "http://www.w3.org/Graphics/SVG/1.1/DTD/svg11.dtd">
<svg version="1.1" id="Layer_1" xmlns="http://www.w3.org/2000/svg" xmlns:xlink="http://www.w3.org/1999/xlink" x="0px" y="0px"
	 width="640.51px" height="550.605px" viewBox="275.357 61.617 640.51 550.605"
	 enable-background="new 275.357 61.617 640.51 550.605" xml:space="preserve">
<g>
	<path d="M753.55,429.027c-17.512-21.553-26.94-47.819-26.94-75.434V301.06c0-63.31-44.452-115.844-103.721-128.641v-24.92
		c0-15.491-12.797-28.287-28.288-28.287c-15.49,0-28.287,12.796-28.287,28.287v24.92c-59.27,12.797-103.721,65.331-103.721,128.641
		v52.534c0,27.614-9.43,53.881-26.94,75.434l-22.227,28.287c-16.164,20.206-2.021,49.84,23.573,49.84H753.55
		c25.594,0,39.737-29.634,23.573-49.84L753.55,429.027z"/>
	<path d="M719.874,139.417c-8.756,9.429-8.756,24.247,0.674,33.002c31.655,30.308,50.513,71.393,53.207,114.497
		c0.674,12.124,11.45,21.553,23.573,21.553c0.674,0,1.347,0,1.347,0c12.797-0.674,22.899-12.124,21.553-24.92
		c-4.041-54.555-27.614-106.415-67.352-144.805C743.448,129.988,728.63,130.661,719.874,139.417z"/>
	<path d="M417.467,287.59c3.368-43.105,22.227-84.189,53.208-114.497c9.429-8.756,9.429-24.247,0.673-33.002
		c-8.755-9.429-24.246-9.429-33.002-0.673c-39.736,38.39-63.31,90.25-67.351,144.805c-0.674,12.797,8.756,24.247,21.553,24.92
		c0.673,0,1.347,0,1.347,0C406.018,309.815,416.12,299.713,417.467,287.59z"/>
	<path d="M408.712,102.374c9.429-8.756,10.103-23.573,1.347-33.002s-23.572-10.103-33.002-1.347
		c-64.657,59.942-101.7,144.805-101.7,233.035v6.061c0,12.797,10.776,23.573,23.573,23.573c12.796,0,23.572-10.776,23.572-23.573
		v-6.061C322.502,224.953,352.811,154.234,408.712,102.374z"/>
	<path d="M814.166,68.025c-9.43-8.756-24.246-8.756-33.002,1.347c-8.756,9.429-8.756,24.247,1.347,33.002
		c55.901,51.86,86.21,122.579,86.21,198.686v6.061c0,12.797,10.775,23.573,23.572,23.573s23.573-10.776,23.573-23.573v-6.061
		C915.193,212.83,878.15,127.967,814.166,68.025z"/>
	<path d="M595.275,612.223c37.043,0,67.352-30.309,67.352-67.352H527.923C527.923,581.914,558.232,612.223,595.275,612.223z"/>
</g>
</svg>
