<?xml version="1.0" encoding="utf-8"?>
<!-- Generator: Adobe Illustrator 16.0.0, SVG Export Plug-In . SVG Version: 6.00 Build 0)  -->
<!DOCTYPE svg PUBLIC "-//W3C//DTD SVG 1.1//EN" "http://www.w3.org/Graphics/SVG/1.1/DTD/svg11.dtd">
<svg version="1.1" id="Layer_1" xmlns="http://www.w3.org/2000/svg" xmlns:xlink="http://www.w3.org/1999/xlink" x="0px" y="0px"
	 width="673.513px" height="673.512px" viewBox="258.519 0 673.513 673.512" enable-background="new 258.519 0 673.513 673.512"
	 xml:space="preserve">
<title>setng cog</title>
<path d="M921.524,294.527c-5.388-3.435-47.887-28.826-64.725-36.572l-20.879-50.513c6.196-16.703,18.118-63.512,20.206-71.662
	c1.7-7.539-0.589-15.423-6.062-20.879l-32.936-32.733c-5.442-5.496-13.339-7.788-20.879-6.062
	c-6.195,1.415-53.881,13.47-71.661,20.206l-50.514-20.879c-7.341-16.165-32.059-57.585-36.571-64.725
	C633.448,4.065,626.228,0.009,618.444,0h-46.338c-7.734,0.004-14.928,3.969-19.061,10.507c-3.435,5.388-28.826,47.887-36.571,64.725
	L465.96,96.11c-16.703-6.196-63.512-18.118-71.661-20.206c-7.539-1.7-15.423,0.589-20.879,6.062l-32.732,32.935
	c-5.496,5.442-7.789,13.339-6.063,20.879c1.415,6.196,13.471,53.881,20.206,71.662l-20.879,50.513
	c-16.164,7.341-57.586,32.059-64.725,36.572c-6.645,4.056-10.7,11.276-10.709,19.06v46.271c0.004,7.734,3.969,14.928,10.507,19.061
	c5.388,3.435,47.887,28.826,64.725,36.571l20.879,50.514c-6.196,16.703-18.117,63.513-20.205,71.662
	c-1.7,7.538,0.588,15.422,6.062,20.879l32.732,32.732c5.442,5.495,13.339,7.788,20.879,6.062
	c6.196-1.414,53.881-13.471,71.661-20.205l50.514,20.879c7.341,16.164,32.059,57.585,36.571,64.725
	c4.077,6.731,11.393,10.824,19.263,10.775h46.271c7.734-0.004,14.928-3.969,19.061-10.506c3.435-5.389,28.826-47.887,36.571-64.725
	l50.514-20.879c16.703,6.196,63.512,18.117,71.662,20.205c7.538,1.7,15.422-0.589,20.878-6.062l32.733-32.733
	c5.495-5.442,7.788-13.339,6.062-20.878c-1.415-6.196-13.471-53.882-20.206-71.662l20.879-50.514
	c16.165-7.341,57.586-32.059,64.725-36.571c6.732-4.077,10.824-11.393,10.776-19.263v-46.338
	C932.092,305.836,928.111,298.614,921.524,294.527z M595.275,483.38c-81.053-0.074-146.698-65.841-146.624-146.894
	c0.075-81.052,65.841-146.698,146.894-146.623c81.052,0.074,146.698,65.84,146.623,146.893
	C741.982,417.762,676.281,483.343,595.275,483.38z"/>
</svg>
