<?xml version="1.0" encoding="utf-8"?>
<!-- Generator: Adobe Illustrator 16.0.0, SVG Export Plug-In . SVG Version: 6.00 Build 0)  -->
<!DOCTYPE svg PUBLIC "-//W3C//DTD SVG 1.1//EN" "http://www.w3.org/Graphics/SVG/1.1/DTD/svg11.dtd">
<svg version="1.1" id="Layer_1" xmlns="http://www.w3.org/2000/svg" xmlns:xlink="http://www.w3.org/1999/xlink" x="0px" y="0px"
	 width="519.701px" height="415.731px" viewBox="330.424 156.308 519.701 415.731"
	 enable-background="new 330.424 156.308 519.701 415.731" xml:space="preserve">
<path d="M382.409,468.119c-28.551,0-51.985,23.41-51.985,51.96s23.41,51.96,51.961,51.96c24.067,0,44.53-16.638,50.352-38.977
	h29.232c5.822,22.339,26.285,38.977,50.353,38.977c24.068,0,44.53-16.638,50.353-38.977h29.232
	c5.822,22.339,26.285,38.977,50.353,38.977c24.068,0,44.53-16.638,50.353-38.977h53.593v25.993c0,4.507,2.339,8.672,6.163,11.035
	c3.825,2.362,8.6,2.582,12.618,0.584l77.953-38.977c4.409-2.192,7.187-6.698,7.187-11.619s-2.777-9.428-7.187-11.62l-77.953-38.977
	c-2.265-1.121-4.799-1.56-7.308-1.267c-6.553,0.779-11.474,6.31-11.474,12.887v25.992h-53.593
	c-5.822-22.338-26.284-38.977-50.353-38.977s-44.53,16.639-50.353,38.977h-29.232c-5.822-22.338-26.26-38.977-50.353-38.977
	c-24.067,0-44.53,16.639-50.328,38.977h-29.232C426.94,484.757,406.477,468.118,382.409,468.119L382.409,468.119z"/>
<path d="M590.275,156.308c-71.592,0-129.913,58.319-129.913,129.913c0,71.594,58.318,129.913,129.913,129.913
	s129.913-58.319,129.913-129.913C720.188,214.626,661.869,156.308,590.275,156.308z M590.275,221.251
	c3.435,0,6.747,1.389,9.185,3.825c2.436,2.436,3.8,5.725,3.8,9.184v46.577l22.192,22.192c5.066,5.067,5.066,13.276,0,18.368
	c-5.092,5.066-13.301,5.066-18.368,0l-25.992-25.993c-2.437-2.436-3.8-5.749-3.8-9.184v-51.96
	C577.291,227.074,583.088,221.252,590.275,221.251L590.275,221.251z"/>
</svg>
