<?xml version="1.0" encoding="utf-8"?>
<!-- Generator: Adobe Illustrator 16.0.0, SVG Export Plug-In . SVG Version: 6.00 Build 0)  -->
<!DOCTYPE svg PUBLIC "-//W3C//DTD SVG 1.1//EN" "http://www.w3.org/Graphics/SVG/1.1/DTD/svg11.dtd">
<svg version="1.1" id="Layer_1" xmlns="http://www.w3.org/2000/svg" xmlns:xlink="http://www.w3.org/1999/xlink" x="0px" y="0px"
	 width="521.23px" height="425.477px" viewBox="329.619 164.103 521.23 425.477"
	 enable-background="new 329.619 164.103 521.23 425.477" xml:space="preserve">
<path d="M538.022,254.628l52.252-90.525l52.253,90.525h-29.598c-2.021,0-3.654,1.632-3.654,3.654v168.765
	c-0.17-0.073-0.316-0.146-0.487-0.244c-2.07-1.071-4.141-2.192-6.284-3.337l-1.34-0.731c-1.072-0.584-2.144-1.169-3.24-1.754
	c-0.414-0.219-0.828-0.438-1.242-0.657c-0.731-0.39-1.438-0.779-2.192-1.169c-0.487-0.269-0.999-0.512-1.486-0.78
	c-0.706-0.365-1.389-0.706-2.095-1.071c-0.536-0.269-1.097-0.536-1.656-0.805c-0.707-0.341-1.389-0.682-2.12-1.022
	c-0.584-0.269-1.193-0.536-1.777-0.804c-0.707-0.317-1.438-0.634-2.169-0.95c-0.633-0.269-1.267-0.536-1.899-0.779
	c-0.756-0.317-1.511-0.609-2.266-0.901c-0.658-0.269-1.34-0.512-2.022-0.756c-0.804-0.292-1.607-0.584-2.411-0.853
	c-0.683-0.243-1.389-0.463-2.119-0.682c-0.414-0.122-0.805-0.269-1.219-0.39V258.301c0-2.021-1.632-3.654-3.653-3.654h-29.599
	L538.022,254.628z M393.273,271.802c-0.683-0.707-1.632-1.096-2.606-1.096h-0.244c-1.071,0.073-2.046,0.609-2.68,1.461
	l-16.491,22.266l-41.632-95.857l103.846,11.888l-18.393,24.823c-1.096,1.486-0.926,3.557,0.414,4.823
	c24.677,23.508,68.724,76.126,88.723,165.99c-0.072,0-0.17,0.023-0.243,0.048c-1.632,0.293-3.191,0.634-4.75,0.975
	c-0.293,0.073-0.585,0.122-0.877,0.195c-1.56,0.365-3.045,0.755-4.531,1.145c-0.292,0.073-0.561,0.171-0.853,0.244
	c-1.413,0.414-2.802,0.828-4.166,1.267c-0.072,0.024-0.17,0.049-0.268,0.073c-1.413,0.462-2.753,0.949-4.093,1.437
	c-0.268,0.098-0.56,0.22-0.828,0.317c-1.291,0.486-2.533,0.998-3.775,1.51c-0.22,0.098-0.414,0.171-0.609,0.269
	c-1.12,0.486-2.241,0.974-3.337,1.461c-0.171,0.073-0.366,0.171-0.536,0.244c-1.17,0.536-2.314,1.096-3.459,1.656
	c-0.244,0.122-0.487,0.243-0.731,0.365c-1.12,0.561-2.241,1.146-3.337,1.705h-0.024c-6.334-30.182-16.225-58.392-29.477-83.945
	c-15.761-30.426-33.179-51.229-45.042-63.311V271.802z M508.324,581.736l-37.588-5.725c5.457-37.515,6.797-73.931,3.995-108.28
	c0.073-0.049,0.146-0.073,0.22-0.121c1.315-0.683,2.582-1.34,3.8-1.998c0.316-0.171,0.634-0.341,0.95-0.512
	c1.145-0.608,2.241-1.218,3.289-1.778c1.242-0.682,2.436-1.34,3.629-1.973l1.097-0.585c0.828-0.438,1.656-0.877,2.484-1.315
	c0.463-0.243,0.901-0.463,1.364-0.682c0.73-0.366,1.462-0.731,2.192-1.072c0.487-0.244,0.999-0.463,1.486-0.683
	c0.682-0.316,1.389-0.633,2.095-0.926c0.536-0.219,1.072-0.438,1.607-0.657c0.683-0.268,1.389-0.536,2.12-0.804
	c0.56-0.195,1.12-0.414,1.705-0.609c0.73-0.243,1.462-0.463,2.217-0.706c0.584-0.171,1.193-0.365,1.803-0.512
	c0.779-0.22,1.607-0.414,2.411-0.585c0.634-0.146,1.242-0.292,1.876-0.414c0.194-0.049,0.39-0.073,0.585-0.098
	c4.434,40.853,3.337,84.558-3.313,130.057L508.324,581.736z M609.295,589.58h-38.002V459.131c0.194,0.097,0.39,0.194,0.584,0.292
	c0.828,0.414,1.633,0.853,2.461,1.291c0.341,0.171,0.682,0.365,1.022,0.536c1.146,0.608,2.29,1.242,3.46,1.876l0.365,0.194
	c1.096,0.585,2.192,1.193,3.313,1.803c0.22,0.122,0.463,0.244,0.707,0.365c0.901,0.487,1.803,0.975,2.729,1.462
	c0.39,0.195,0.804,0.414,1.193,0.609c0.804,0.414,1.583,0.828,2.411,1.242c0.463,0.243,0.975,0.463,1.462,0.706
	c0.779,0.365,1.535,0.756,2.339,1.121c0.536,0.243,1.071,0.487,1.607,0.73c0.779,0.341,1.56,0.706,2.363,1.048
	c0.585,0.243,1.169,0.487,1.754,0.73c0.804,0.341,1.607,0.657,2.46,0.975c0.634,0.243,1.267,0.487,1.9,0.706
	c0.853,0.316,1.705,0.609,2.582,0.901c0.658,0.22,1.34,0.438,2.021,0.658c0.439,0.146,0.829,0.292,1.268,0.414V589.58z
	 M672.219,581.736c-5.067-34.689-6.943-68.381-5.53-100.291c0.098,0,0.195-0.024,0.292-0.049c1.827-0.195,3.581-0.438,5.311-0.707
	c0.366-0.049,0.731-0.121,1.097-0.17c1.632-0.269,3.24-0.536,4.774-0.853c0.098,0,0.22-0.049,0.316-0.073
	c1.633-0.341,3.191-0.683,4.727-1.072c0.341-0.073,0.657-0.17,0.998-0.243c1.511-0.39,2.973-0.779,4.385-1.193
	c0.122-0.049,0.244-0.073,0.391-0.122c1.34-0.39,2.631-0.804,3.873-1.242c0.268-0.098,0.536-0.171,0.804-0.269
	c1.315-0.463,2.582-0.926,3.824-1.389c0.22-0.072,0.438-0.17,0.634-0.243c1.12-0.438,2.241-0.901,3.313-1.364
	c0.171-0.073,0.342-0.146,0.487-0.219c1.17-0.512,2.29-1.023,3.411-1.535c0.097-0.049,0.17-0.073,0.268-0.122
	c-2.509,33.593-1.096,69.011,4.189,105.405l-37.587,5.725L672.219,581.736z M814.747,419.47v34.908
	c-12.18-6.505-24.238-11.718-46.941-11.718c-25.579,0-37.638,6.603-51.619,14.252c-2.631,1.437-5.286,2.874-8.112,4.336
	c-3.167,1.632-6.528,3.264-10.134,4.799c-8.429,3.557-18.344,6.602-31.303,8.063c-1.242,0.146-2.485,0.268-3.776,0.365
	c-4.141,0.365-8.647,0.561-13.422,0.561c-13.203,0-24.799-1.438-35.493-4.434c-1.607-0.438-3.142-0.926-4.652-1.413
	c-2.095-0.683-4.068-1.438-6.017-2.192c-7.723-3.045-14.251-6.602-20.609-10.085l-0.365-0.195c-4.482-2.436-8.696-4.75-13.203-6.724
	c-11.425-5.115-22.801-7.308-38.003-7.308c-6.114,0-11.595,0.365-16.784,1.096c-14.786,2.192-24.067,7.26-34.811,13.131
	c-1.193,0.657-2.484,1.364-3.824,2.095c-1.169,0.634-2.387,1.267-3.654,1.925c-0.243,0.121-0.512,0.268-0.755,0.39
	c-0.657,0.341-1.315,0.682-1.974,0.999c-12.496,6.284-28.988,12.716-56.54,12.716c-17.855,0-32.837-2.655-46.917-8.355v-34.908
	c12.204,6.504,24.263,11.717,46.917,11.717c25.53,0,37.563-6.602,51.669-14.323c0.487-0.269,0.975-0.536,1.486-0.828l1.022-0.561
	c1.462-0.804,2.948-1.584,4.434-2.363c1.486-0.779,2.996-1.534,4.507-2.29c0,0,0.049,0,0.073-0.024
	c9.184-4.482,19.415-8.355,33.179-10.426c6.723-1.048,14.129-1.584,21.973-1.584c13.276,0,24.92,1.462,35.565,4.458
	c12.692,3.532,22.021,8.624,31.182,13.642l1.218,0.658c2.095,1.145,4.141,2.241,6.188,3.313c2.046,1.072,4.093,2.071,6.212,3.021
	c11.474,5.091,22.825,7.283,37.978,7.283c6.65,0,12.545-0.438,18.002-1.315c13.934-2.241,22.874-7.113,33.227-12.74l0.438-0.244
	c1.682-0.926,3.338-1.826,4.994-2.728c3.995-2.145,7.941-4.142,12.375-6.018c14.787-6.382,30.475-9.354,49.379-9.354
	c17.832,0,32.813,2.655,46.941,8.331L814.747,419.47z M809.339,294.452l-16.54-22.265c-0.633-0.853-1.607-1.389-2.68-1.461
	c-1.071-0.073-2.119,0.316-2.85,1.096c-11.814,12.058-29.232,32.837-45.019,63.31c-12.594,24.287-22.144,50.986-28.452,79.388
	c-0.634,0.268-1.219,0.561-1.827,0.853c-0.609,0.268-1.219,0.561-1.803,0.828c-0.926,0.438-1.827,0.901-2.753,1.364
	c-0.536,0.268-1.072,0.536-1.607,0.804c-0.975,0.512-1.949,1.023-2.924,1.535c-0.438,0.219-0.853,0.463-1.291,0.682
	c-1.364,0.731-2.729,1.486-4.093,2.241l-0.414,0.22c-1.169,0.633-2.29,1.242-3.41,1.851c-0.341,0.195-0.683,0.366-1.023,0.536
	c-0.804,0.438-1.607,0.853-2.387,1.267c-0.414,0.22-0.828,0.414-1.243,0.634c-0.706,0.365-1.437,0.706-2.144,1.048
	c-0.438,0.219-0.877,0.414-1.315,0.633c-0.706,0.316-1.412,0.634-2.119,0.95c-0.438,0.194-0.877,0.39-1.34,0.561
	c-0.755,0.316-1.51,0.608-2.29,0.877c-0.414,0.146-0.828,0.316-1.267,0.463c-0.95,0.341-1.948,0.657-2.947,0.949
	c-0.244,0.073-0.487,0.171-0.755,0.244c-1.194,0.341-2.461,0.657-3.728,0.95c16.59-109.914,71.037-172.058,93.911-193.859
	c1.34-1.267,1.511-3.337,0.414-4.824L747.029,210.5l103.821-11.887l-41.608,95.857L809.339,294.452z"/>
</svg>
