<?xml version="1.0" encoding="utf-8"?>
<!-- Generator: Adobe Illustrator 16.0.0, SVG Export Plug-In . SVG Version: 6.00 Build 0)  -->
<!DOCTYPE svg PUBLIC "-//W3C//DTD SVG 1.1//EN" "http://www.w3.org/Graphics/SVG/1.1/DTD/svg11.dtd">
<svg version="1.1" id="Layer_1" xmlns="http://www.w3.org/2000/svg" xmlns:xlink="http://www.w3.org/1999/xlink" x="0px" y="0px"
	 width="522.894px" height="459.41px" viewBox="330.423 134.456 522.894 459.41"
	 enable-background="new 330.423 134.456 522.894 459.41" xml:space="preserve">
<path d="M850.125,386.512v40.023c0.269,17.832-6.626,35.006-19.122,47.722c-12.497,12.692-29.573,19.829-47.405,19.829H601.699
	c-10.037,0-18.173-8.136-18.173-18.173c0-10.061,8.136-18.197,18.173-18.197h181.898c8.185,0,16.004-3.313,21.681-9.184
	c5.7-5.896,8.745-13.837,8.453-21.997v-40.024c0-10.036,8.161-18.173,18.197-18.173S850.126,376.475,850.125,386.512
	L850.125,386.512z M783.598,134.456l-306.087,0.024c-36.734,0-66.527,29.768-66.527,66.503v100.827
	c-0.609,5.164,0.998,10.354,4.458,14.251c3.435,3.873,8.404,6.114,13.593,6.114c5.213,0,10.158-2.241,13.617-6.114
	c3.459-3.897,5.067-9.086,4.458-14.251V200.983c0-8.039,3.191-15.736,8.916-21.389c5.7-5.676,13.446-8.818,21.485-8.745h306.087
	c7.989,0,15.663,3.167,21.315,8.818c5.651,5.652,8.818,13.325,8.818,21.315v33.276c0,10.037,8.16,18.173,18.197,18.173
	c10.036,0,18.197-8.136,18.197-18.173v-33.276c0-36.735-29.792-66.503-66.528-66.503V134.456z M831.928,295.843h-25.992
	c-2.363-0.024-4.507-1.462-5.457-3.654l-11.961-23.897h0.024c-7.161-14.397-21.851-23.532-37.953-23.532
	c-16.077,0-30.767,9.135-37.929,23.532l-36.638,74.835c-0.999,2.095-3.143,3.41-5.457,3.386c-2.241-0.024-4.287-1.34-5.188-3.386
	l-37.417-74.835c-7.138-14.251-21.754-23.216-37.686-23.118c-16.005-0.122-30.67,8.964-37.686,23.386l-31.692,63.142
	c-4.36,8.964-0.804,19.805,8.063,24.409c4.336,2.168,9.354,2.484,13.934,0.926c4.58-1.56,8.355-4.872,10.476-9.233l31.449-63.142
	c0.95-2.144,3.118-3.483,5.457-3.386c2.191-0.024,4.214,1.169,5.188,3.118l37.417,74.834c6.967,14.446,21.656,23.581,37.686,23.386
	c16.078,0.098,30.791-8.988,37.929-23.386l37.686-74.566c0.95-2.144,3.094-3.532,5.457-3.532c2.362,0,4.507,1.389,5.456,3.532
	l11.961,23.897c7.138,14.397,21.852,23.483,37.929,23.386h25.993c5.164,0.634,10.328-0.999,14.226-4.434
	c3.897-3.459,6.114-8.404,6.114-13.617s-2.217-10.158-6.114-13.618c-3.897-3.435-9.062-5.067-14.226-4.434H831.928z
	 M481.653,410.945c-5.555-9.014-15.371-14.519-25.969-14.543h-8.331v-22.095c0-10.037-8.137-18.197-18.173-18.197
	c-10.061,0-18.197,8.16-18.197,18.197v22.095h-8.307c-10.597,0.024-20.438,5.529-25.992,14.543l-41.826,69.378
	c-2.875,4.701-4.409,10.085-4.434,15.591v67.551c-0.073,8.039,3.094,15.785,8.745,21.485c5.651,5.725,13.373,8.916,21.412,8.916
	h23.118c8.039,0,15.736-3.191,21.412-8.916c5.651-5.7,8.794-13.446,8.721-21.485V534.11c0.634-5.164-0.999-10.354-4.434-14.251
	c-3.459-3.873-8.404-6.114-13.617-6.114s-10.158,2.241-13.617,6.114c-3.435,3.897-5.067,9.086-4.434,14.251v23.386h-10.913v-59.755
	l39.244-64.97h4.921v14.543l-23.118,23.118v0.024c-3.557,3.386-5.578,8.063-5.578,12.983c0,4.921,2.021,9.599,5.578,12.984
	c3.411,3.508,8.088,5.456,12.983,5.456c4.896,0,9.574-1.948,12.984-5.456l15.858-15.859l15.591,15.859
	c7.186,7.186,18.806,7.186,25.992,0c7.162-7.162,7.162-18.807,0-25.969l-23.921-23.142v-14.543h4.945l39.244,64.969v59.756h-10.913
	V534.11c0.608-5.165-0.999-10.354-4.458-14.251c-3.459-3.874-8.404-6.115-13.617-6.115c-5.189,0-10.158,2.241-13.594,6.115
	c-3.459,3.897-5.066,9.086-4.458,14.251v29.354c-0.072,8.039,3.069,15.785,8.745,21.485c5.651,5.725,13.35,8.916,21.389,8.916
	h22.874c8.063,0,15.785-3.191,21.486-8.892c5.725-5.7,8.916-13.446,8.916-21.51v-67.551c-0.024-5.506-1.56-10.889-4.409-15.591
	L481.653,410.945z"/>
</svg>
