<?xml version="1.0" encoding="utf-8"?>
<!-- Generator: Adobe Illustrator 16.0.0, SVG Export Plug-In . SVG Version: 6.00 Build 0)  -->
<!DOCTYPE svg PUBLIC "-//W3C//DTD SVG 1.1//EN" "http://www.w3.org/Graphics/SVG/1.1/DTD/svg11.dtd">
<svg version="1.1" id="Layer_1" xmlns="http://www.w3.org/2000/svg" xmlns:xlink="http://www.w3.org/1999/xlink" x="0px" y="0px"
	 width="547.229px" height="547.229px" viewBox="321.66 63.142 547.229 547.229"
	 enable-background="new 321.66 63.142 547.229 547.229" xml:space="preserve">
<g>
	<g>
		<path d="M847.842,147.331h-42.095v378.851c0,11.618-9.43,21.047-21.048,21.047H426.897v42.095
			c0,11.576,9.471,21.047,21.047,21.047h399.898c11.576,0,21.047-9.471,21.047-21.047V168.378
			C868.889,156.802,859.418,147.331,847.842,147.331z"/>
		<path d="M763.653,505.134V63.142H342.708c-11.576,0-21.048,9.472-21.048,21.047v420.945H763.653z M458.467,226.258
			c0-26.73,10.419-51.776,29.256-70.719c18.942-18.837,43.989-29.255,70.719-29.255c55.145,0,99.975,44.831,99.975,99.974
			c0,11.576-9.471,21.047-21.047,21.047s-21.048-9.471-21.048-21.047c0-31.887-25.993-57.88-57.88-57.88s-57.88,25.993-57.88,57.88
			v173.64c0,23.258,18.838,42.095,42.095,42.095s42.095-18.837,42.095-42.095V289.4c0-5.788-4.735-10.524-10.523-10.524
			s-10.524,4.736-10.524,10.524v94.712c0,11.576-9.471,21.047-21.047,21.047s-21.047-9.471-21.047-21.047V289.4
			c0-29.045,23.572-52.618,52.618-52.618c29.045,0,52.618,23.573,52.618,52.618v110.498c0,46.409-37.78,84.189-84.189,84.189
			s-84.189-37.78-84.189-84.189V226.258z"/>
	</g>
</g>
</svg>
