<?xml version="1.0" encoding="utf-8"?>
<!-- Generator: Adobe Illustrator 16.0.0, SVG Export Plug-In . SVG Version: 6.00 Build 0)  -->
<!DOCTYPE svg PUBLIC "-//W3C//DTD SVG 1.1//EN" "http://www.w3.org/Graphics/SVG/1.1/DTD/svg11.dtd">
<svg version="1.1" id="Layer_1" xmlns:serif="http://www.serif.com/"
	 xmlns="http://www.w3.org/2000/svg" xmlns:xlink="http://www.w3.org/1999/xlink" x="0px" y="0px" width="588.215px"
	 height="589.342px" viewBox="300.617 42.086 588.215 589.342" enable-background="new 300.617 42.086 588.215 589.342"
	 xml:space="preserve">
<g transform="matrix(1,0,0,1,-240,-48)">
	<g transform="matrix(0.698795,0.507705,-0.947715,1.30442,67.4224,-101.047)">
		<path d="M1344.011,11.024l0,35.928c0,14.712-10.903,28.813-30.308,39.211c-19.406,10.397-45.735,16.248-73.202,16.248l-0.085,0
			c-27.466,0-53.797-5.851-73.201-16.248c-19.406-10.397-30.308-24.499-30.308-39.211l-0.001-35.928L1344.011,11.024z
			 M1136.906-2.025l0-35.928c0-14.712,10.903-28.814,30.308-39.211s45.734-16.248,73.202-16.248l0.085,0
			c27.466,0,53.796,5.852,73.201,16.248c19.406,10.397,30.308,24.499,30.308,39.211l0,35.928L1136.906-2.025z M1491.405,10.687
			c-4.863,6.441-13.029,12.228-24.269,16.607c-32.075,12.481-77.012,8.65-100.311-8.525c-8.167-6.019-12.587-12.881-13.534-19.785
			L1491.405,10.687z M1355.692-14.043c4.147-8.124,13.302-15.596,27.025-20.921c32.055-12.481,77.012-8.672,100.311,8.503
			c9.955,7.345,14.354,15.954,13.618,24.393L1355.692-14.043z M1167.825,95.213c-135.208,48.43-319.097,31.297-415.515-39.8
			c-98.817-72.866-68.614-174.987,67.372-227.921c136.008-52.934,326.653-36.748,425.449,36.096
			c17.68,13.028,31.213,27.004,40.768,41.443c-14.207-3.242-29.634-4.968-45.398-4.968l-0.085,0
			c-30.687,0.001-60.11,6.546-81.81,18.164c-21.7,11.618-33.886,27.382-33.885,43.82l-0.001,84.905
			c0,16.438,12.186,32.202,33.885,43.821C1161.531,92.35,1164.624,93.824,1167.825,95.213z M994.058-22.547
			c8.356,0.632,17.175-0.421,24.562-3.283c15.113-5.872,18.459-17.238,7.472-25.32c-7.009-5.177-18.206-7.787-29.339-7.45
			l-116.918-86.21c-5.935-4.378-17.385-5.346-25.529-2.168c-8.167,3.178-9.978,9.303-4.042,13.659l116.939,86.231
			c-0.821,1.115-1.41,2.252-1.79,3.431L861.734-3.31c-10.881,4.231-13.303,12.397-5.388,18.227
			c7.914,5.83,23.151,7.114,34.033,2.884L994.058-22.547z"/>
	</g>
</g>
</svg>
