<?xml version="1.0" encoding="utf-8"?>
<!-- Generator: Adobe Illustrator 16.0.0, SVG Export Plug-In . SVG Version: 6.00 Build 0)  -->
<!DOCTYPE svg PUBLIC "-//W3C//DTD SVG 1.1//EN" "http://www.w3.org/Graphics/SVG/1.1/DTD/svg11.dtd">
<svg version="1.1" id="Layer_1" xmlns="http://www.w3.org/2000/svg" xmlns:xlink="http://www.w3.org/1999/xlink" x="0px" y="0px"
	 width="546.308px" height="463.965px" viewBox="317.103 132.283 546.308 463.965"
	 enable-background="new 317.103 132.283 546.308 463.965" xml:space="preserve">
<path d="M372.762,394.918c-0.707-3.824,1.656-7.552,5.407-8.551c3.776-1.022,7.674,1.023,8.989,4.678l35.664,133.199v0.024
	c2.679,9.865,9.184,18.271,18.099,23.313c8.819,5.141,19.318,6.578,29.184,3.995l25.311-6.553c1.974-0.706,4.142-0.561,5.993,0.414
	c1.875,0.975,3.239,2.655,3.775,4.677c0.536,2.022,0.22,4.19-0.901,5.944c-1.12,1.778-2.947,2.996-4.994,3.361l-25.31,6.797
	c-13.715,3.629-28.308,1.656-40.536-5.481c-12.277-7.064-21.267-18.685-24.944-32.375L372.762,394.918z M348.62,304.861
	c-1.047-3.971,1.315-8.039,5.311-9.086c3.971-1.047,8.039,1.315,9.086,5.286l11.353,42.411c1.047,3.971-1.315,8.063-5.286,9.11
	c-3.995,1.048-8.063-1.315-9.111-5.311L348.62,304.861z M679.576,522.081l18.026-4.872c1.121-0.293,2.096-1.023,2.68-2.047
	c0.585-0.998,0.731-2.192,0.438-3.313l-18.708-68.917c-0.293-1.12-1.023-2.095-2.047-2.679c-0.999-0.585-2.192-0.731-3.313-0.439
	l-18.075,4.872l20.755,77.392L679.576,522.081z M337.707,263.714l-0.804,0.682c-4.264,4.044-7.941,8.672-10.914,13.715
	c-6.139,10.255-7.795,22.558-4.628,34.055l59.804,223.188c5.53,21.047,19.244,39.025,38.1,49.89
	c18.758,10.865,41.071,13.837,61.997,8.233l177.607-47.771c6.065-1.632,9.695-7.868,8.112-13.958l-24.142-89.06
	c-1.681-6.042-7.893-9.647-13.958-8.039l-61.12,16.395c-15.761,4.165-31.937-5.189-36.175-20.95L476.776,225.49
	c-1.948-7.479-7.161-13.642-14.177-16.833c-7.016-3.167-15.104-3.021-21.997,0.414l-82.068,40.536
	c-7.602,3.654-14.617,8.405-20.828,14.104L337.707,263.714z M429.012,170.171l6.674,24.945l-1.681,0.804l-82.019,40.292
	c-5.433,2.729-10.646,5.896-15.591,9.476l-12.472-47.332l105.261-28.185H429.012z M319.878,183.813l105.261-28.185l-2.046-7.601
	c-1.462-5.481-5.043-10.134-9.939-12.96c-4.921-2.801-10.743-3.532-16.2-1.997l-64.164,17.271
	c-11.255,3.045-17.953,14.591-14.981,25.871l2.046,7.601H319.878z M732.466,393.873c-1.852,3.654-6.31,5.141-9.987,3.289
	c-3.654-1.827-5.141-6.31-3.289-9.964c7.795-15.663,23.775-25.529,41.267-25.529c17.49,0,33.471,9.865,41.29,25.529
	c27.795-0.633,52.424,17.832,59.609,44.677c7.187,26.87-4.92,55.152-29.305,68.499c0.804,13.959-4.774,27.552-15.152,36.931
	c-10.402,9.354-24.482,13.52-38.294,11.278c-6.456-0.999-12.595-3.41-18.026-7.04c-1.608-1.096-2.704-2.777-3.069-4.677
	c-0.366-1.925,0.049-3.897,1.145-5.506c1.072-1.632,2.777-2.777,4.702-3.191c1.924-0.39,3.946,0,5.578,1.072
	c10.426,6.967,24.02,6.991,34.47,0.098c10.449-6.895,15.785-19.392,13.495-31.717c-0.706-3.459,1.121-6.943,4.36-8.355
	c20.634-8.94,31.596-31.668,25.773-53.397s-26.674-35.907-49.037-33.35c-3.557,0.561-7.016-1.56-8.161-4.97
	c-3.337-9.646-11.157-17.052-20.949-19.829c-9.817-2.777-20.365-0.609-28.258,5.847c-3.435,2.825-6.236,6.333-8.234,10.304
	L732.466,393.873z M774.561,447.441l-51.254,13.715h-0.024c-3.971,1.145-6.261,5.311-5.092,9.281
	c1.146,3.995,5.311,6.285,9.281,5.115l51.255-13.715c2.07-0.365,3.873-1.583,4.993-3.361c1.121-1.754,1.438-3.922,0.901-5.943
	c-0.536-2.022-1.9-3.728-3.751-4.702c-1.852-0.95-4.044-1.096-5.993-0.39H774.561z M752.417,398.843l-41.339,23.872v0.024
	c-3.581,2.047-4.8,6.603-2.753,10.158c2.046,3.557,6.602,4.8,10.158,2.753l41.339-23.873l0.024-0.024
	c3.557-2.046,4.774-6.602,2.729-10.158C760.53,398.039,755.974,396.796,752.417,398.843z M783.598,500.057h-47.892
	c-3.85,0.365-6.797,3.581-6.797,7.454s2.948,7.112,6.797,7.454h47.892c3.85-0.342,6.797-3.581,6.797-7.454
	S787.447,500.422,783.598,500.057z"/>
</svg>
