<?xml version="1.0" encoding="utf-8"?>
<!-- Generator: Adobe Illustrator 16.0.0, SVG Export Plug-In . SVG Version: 6.00 Build 0)  -->
<!DOCTYPE svg PUBLIC "-//W3C//DTD SVG 1.1//EN" "http://www.w3.org/Graphics/SVG/1.1/DTD/svg11.dtd">
<svg version="1.1" id="Layer_1" xmlns="http://www.w3.org/2000/svg" xmlns:xlink="http://www.w3.org/1999/xlink" x="0px" y="0px"
	 width="420.408px" height="510.268px" viewBox="380.071 109.018 420.408 510.268"
	 enable-background="new 380.071 109.018 420.408 510.268" xml:space="preserve">
<path d="M580.727,234.36c3.265,0.122,5.822,2.85,5.725,6.139c-0.098,3.264-2.825,5.847-6.114,5.773
	c-29.524-0.999-57.198,14.373-71.96,39.976c-14.786,25.578-14.275,57.246,1.364,82.312c0.853,1.364,1.146,2.996,0.779,4.556
	c-0.341,1.559-1.315,2.898-2.655,3.751c-1.363,0.828-2.996,1.097-4.555,0.731c-1.56-0.365-2.899-1.364-3.703-2.729
	c-11.79-18.953-16.297-41.534-12.667-63.554c3.63-22.021,15.152-41.973,32.399-56.126c17.271-14.153,39.073-21.559,61.388-20.828
	L580.727,234.36z M703.113,119.895c-1.315-0.901-2.192-2.29-2.484-3.849c-0.268-1.535,0.073-3.143,0.975-4.458
	c1.852-2.704,5.578-3.386,8.282-1.51c56.76,39.245,90.618,103.846,90.594,172.862c0,3.289-2.68,5.968-5.993,5.968
	c-3.288,0-5.968-2.68-5.968-5.968c0.073-65.094-31.863-126.065-85.405-163.046V119.895z M392.031,282.94
	c0,3.289-2.68,5.968-5.968,5.968c-3.313,0-5.993-2.68-5.993-5.968c-0.024-69.01,33.836-133.617,90.594-172.862
	c2.704-1.778,6.333-1.072,8.185,1.607c1.827,2.655,1.218,6.31-1.413,8.209C423.893,156.875,391.956,217.848,392.031,282.94
	L392.031,282.94z M584.867,566.545c-19.609,0-39.22-1.071-58.708-3.191c1.511,31.327,27.332,55.932,58.708,55.932
	c31.352,0,57.198-24.604,58.709-55.932C624.088,565.474,604.479,566.545,584.867,566.545z M585.623,192.128
	c6.821,0,13.642,0.487,20.389,1.462c11.328-8.721,15.835-23.703,11.23-37.247c-4.604-13.521-17.319-22.631-31.619-22.631
	s-27.016,9.11-31.645,22.631c-4.604,13.544-0.097,28.525,11.23,37.247C571.982,192.616,578.803,192.128,585.623,192.128z
	 M759.315,525.087c-14.251-25.262-25.091-52.302-32.277-80.392c-8.137-31.254-11.986-63.51-11.4-95.807v-0.487
	c3.849-36.833-8.112-73.594-32.887-101.096c-24.799-27.527-60.097-43.239-97.147-43.239c-37.052,0-72.353,15.712-97.148,43.239
	c-24.774,27.503-36.735,64.265-32.886,101.096c0.049,0.365,0.049,0.706,0,1.048c-1.56,31.546-6.456,62.823-14.616,93.324
	c-7.601,28.332-17.979,55.858-30.962,82.193c56.199,19.61,115.32,29.646,174.883,29.622c59.39,0,118.363-9.963,174.445-29.5
	L759.315,525.087z"/>
</svg>
