<?xml version="1.0" encoding="utf-8"?>
<!-- Generator: Adobe Illustrator 16.0.0, SVG Export Plug-In . SVG Version: 6.00 Build 0)  -->
<!DOCTYPE svg PUBLIC "-//W3C//DTD SVG 1.1//EN" "http://www.w3.org/Graphics/SVG/1.1/DTD/svg11.dtd">
<svg version="1.1" id="Layer_1" xmlns="http://www.w3.org/2000/svg" xmlns:xlink="http://www.w3.org/1999/xlink" x="0px" y="0px"
	 width="584.646px" height="506.693px" viewBox="297.948 110.827 584.646 506.693"
	 enable-background="new 297.948 110.827 584.646 506.693" xml:space="preserve">
<path d="M833.874,110.827H346.669c-26.894,0-48.721,21.827-48.721,48.721V568.8c0,26.894,21.827,48.72,48.721,48.72h487.205
	c26.894,0,48.72-21.826,48.72-48.72V159.547C882.594,132.654,860.768,110.827,833.874,110.827z M570.781,188.78
	c0,16.078-13.155,29.232-29.232,29.232c-16.078,0-29.232-13.154-29.232-29.232s13.154-29.232,29.232-29.232
	C557.625,159.547,570.781,172.702,570.781,188.78z M483.086,188.78c0,16.078-13.154,29.232-29.232,29.232
	c-16.077,0-29.232-13.154-29.232-29.232s13.155-29.232,29.232-29.232C469.932,159.547,483.086,172.702,483.086,188.78z
	 M366.157,159.547c16.077,0,29.232,13.155,29.232,29.232s-13.155,29.232-29.232,29.232s-29.232-13.154-29.232-29.232
	S350.08,159.547,366.157,159.547z M461.26,393.213c-4.58-5.165-7.406-11.986-7.406-19.294c0-16.078,13.155-29.232,29.232-29.232
	c16.078,0,29.232,13.154,29.232,29.232c0,6.723-2.339,13.058-6.236,18.026l38.685,60.706c2.144-0.487,4.287-0.78,6.528-0.78
	c5.066,0,9.939,1.364,14.129,3.605l46.577-41.314c-1.462-3.411-2.241-7.113-2.241-11.011c0-16.078,13.154-29.232,29.232-29.232
	c16.077,0,29.232,13.154,29.232,29.232c0,3.8-0.78,7.405-2.145,10.719l36.541,31.961c4.287-2.339,9.16-3.703,14.324-3.703
	c0.39,0,0.779,0,1.169,0.098l38.002-95.103c-6.041-5.359-9.938-13.252-9.938-21.924c0-16.078,13.154-29.232,29.231-29.232
	c16.078,0,29.232,13.154,29.232,29.232c0,16.077-13.154,29.232-29.232,29.232c-0.39,0-0.779,0-1.169-0.098l-38.002,95.103
	c6.041,5.358,9.939,13.252,9.939,21.924c0,16.077-13.155,29.232-29.232,29.232c-16.078,0-29.232-13.155-29.232-29.232
	c0-3.801,0.779-7.405,2.144-10.719l-36.54-31.961c-4.288,2.339-9.16,3.703-14.324,3.703s-10.037-1.364-14.227-3.703l-46.479,41.412
	c1.461,3.411,2.24,7.113,2.24,11.011c0,16.078-13.154,29.232-29.231,29.232c-16.078,0-29.232-13.154-29.232-29.232
	c0-6.724,2.338-13.058,6.236-18.026l-38.587-60.706c-2.144,0.487-4.385,0.779-6.626,0.779c-1.656,0-3.313-0.097-4.872-0.486
	l-76.007,136.903h373.2c5.359,0,9.744,4.385,9.744,9.744s-4.385,9.744-9.744,9.744H385.645c-1.072,0-2.046-0.195-3.021-0.487
	c-0.487-0.194-0.975-0.39-1.462-0.682c0,0-0.195,0-0.292-0.098c0,0-0.098,0-0.098-0.098c-0.779-0.39-1.462-0.877-2.046-1.462
	c-0.487-0.487-0.975-1.071-1.268-1.656c-0.292-0.39-0.486-0.877-0.682-1.267c-0.098-0.098-0.098-0.195-0.195-0.39
	c-0.194-0.487-0.39-0.975-0.487-1.56c-0.097-0.682-0.194-1.363-0.194-2.046V305.712c0-5.359,4.385-9.744,9.744-9.744
	s9.744,4.385,9.744,9.744v205.989L461.26,393.213z M317.44,266.735v-19.488h545.67v19.488H317.44z"/>
</svg>
