<?xml version="1.0" encoding="utf-8"?>
<!-- Generator: Adobe Illustrator 16.0.0, SVG Export Plug-In . SVG Version: 6.00 Build 0)  -->
<!DOCTYPE svg PUBLIC "-//W3C//DTD SVG 1.1//EN" "http://www.w3.org/Graphics/SVG/1.1/DTD/svg11.dtd">
<svg version="1.1" id="Layer_1" xmlns="http://www.w3.org/2000/svg" xmlns:xlink="http://www.w3.org/1999/xlink" x="0px" y="0px"
	 width="666.75px" height="673.512px" viewBox="261.9 0 666.75 673.512" enable-background="new 261.9 0 666.75 673.512"
	 xml:space="preserve">
<g>
	<path d="M330.449,523.135c-43.131-48.488-66.749-127.64-68.55-199.05C261.9,145.097,406.83,0,585.612,0
		c71.002,0.957,143.454,22.886,198.816,68.631l-60.126,60.194c-40.555-29.724-88.904-43.262-138.69-44.519
		c-132.277,0-239.505,107.354-239.505,239.779c-0.503,50.438,20.174,105.862,44.47,138.852
		C421.665,502.188,354.584,550.277,330.449,523.135z"/>
	<path d="M788.303,160.987c-1.611,1.482-3.498,2.645-5.545,3.417c-1.545,0.584-5.415,2.236-6.735,2.636
		c-2.038,0.62-3.749,0.844-5.761,0.92c-0.399,0.014-2.393,0.054-3.139,0.076c-1.063,0.036-2.133-0.027-3.184-0.193l-75.334-11.701
		c-26.249-4.077-35.48-37.2-15.137-54.294l76.925-64.617c20.345-17.094,51.326-2.236,50.778,24.35
		c-0.902,43.486-1.186,56.92-1.464,70.359l0,0c-0.054,2.685-0.054,2.685-0.121,5.963c-0.014,0.624-0.063,1.249-0.144,1.868
		c-0.072,0.562-0.27,2.228-0.324,2.618c-0.26,1.876-0.642,3.506-1.428,5.401c-0.484,1.167-2.19,4.315-2.766,5.5
		c-0.943,1.935-2.24,3.677-3.825,5.132L788.303,160.987z"/>
	<path d="M860.1,150.377c43.132,48.488,66.749,127.639,68.55,199.049c0,178.988-144.931,324.085-323.712,324.085
		c-71.002-0.956-143.454-22.886-198.816-68.631l60.126-60.193c40.555,29.724,88.904,43.262,138.69,44.519
		c132.277,0,239.505-107.353,239.505-239.779c0.503-50.437-20.174-105.862-44.47-138.851
		C768.884,171.323,835.965,123.235,860.1,150.377z"/>
	<path d="M402.246,512.524c1.611-1.481,3.497-2.645,5.545-3.417c1.545-0.579,5.415-2.235,6.735-2.636
		c2.038-0.619,3.749-0.844,5.761-0.92c0.399-0.014,2.393-0.054,3.139-0.076c1.063-0.036,2.133,0.026,3.184,0.192l75.334,11.701
		c26.249,4.077,35.48,37.201,15.137,54.295l-76.925,64.616c-20.345,17.094-51.325,2.236-50.777-24.35
		c0.902-43.486,1.185-56.921,1.463-70.359l0,0c0.055-2.686,0.055-2.686,0.122-5.963c0.013-0.624,0.063-1.248,0.144-1.868
		c0.071-0.562,0.27-2.227,0.323-2.617c0.26-1.877,0.642-3.507,1.428-5.402c0.484-1.167,2.191-4.314,2.766-5.5
		c0.943-1.936,2.24-3.678,3.825-5.132L402.246,512.524z"/>
</g>
</svg>
