<?xml version="1.0" encoding="utf-8"?>
<!-- Generator: Adobe Illustrator 16.0.0, SVG Export Plug-In . SVG Version: 6.00 Build 0)  -->
<!DOCTYPE svg PUBLIC "-//W3C//DTD SVG 1.1//EN" "http://www.w3.org/Graphics/SVG/1.1/DTD/svg11.dtd">
<svg version="1.1" id="Layer_1" xmlns="http://www.w3.org/2000/svg" xmlns:xlink="http://www.w3.org/1999/xlink" x="0px" y="0px"
	 width="545.907px" height="561.259px" viewBox="317.321 83.545 545.907 561.259"
	 enable-background="new 317.321 83.545 545.907 561.259" xml:space="preserve">
<path d="M477.293,314.745c-22.704,39.366-45.115,79.681-68.455,118.513c-7.089,12.156,1.364,27.479,15.907,27.479h136.879
	c14.543,0,22.972-15.322,15.907-27.479c-23.361-38.854-45.724-79.144-68.474-118.513c-3.459-6.017-9.281-9.306-15.883-9.306
	c-6.626,0-12.424,3.288-15.907,9.306H477.293z M493.2,446.804c-4.58,0-8.063-3.557-8.063-8.526c0-4.482,3.605-8.063,8.063-8.063
	c4.434,0,8.063,3.605,8.063,8.063C501.264,443.247,497.756,446.804,493.2,446.804z M501.264,338.842v66.603
	c0,4.482-3.63,8.063-8.063,8.063c-4.482,0-8.063-3.604-8.063-8.063v-66.603c0-4.409,3.605-8.039,8.063-8.039
	C497.634,330.803,501.264,334.433,501.264,338.842z M590.055,236.456c-27.771-18.392-61.047-29.037-96.854-29.037
	c-97.147,0-175.88,78.708-175.88,175.855c0,51.888,22.436,98.489,58.172,130.718h-0.024v49.231l235.467-0.024v-49.231
	c39.366-35.541,62.462-88.523,57.466-146.14c-52.983-19.244-86.846-73.4-78.339-131.397L590.055,236.456z M523.016,306.738
	c21.632,37.466,49.451,80.634,68.405,118.513c13.422,22.996-3.24,51.644-29.793,51.644H424.75
	c-26.602,0-43.264-28.648-29.817-51.644c18.953-37.904,46.771-81.046,68.455-118.513c6.724-11.62,18.295-17.344,29.816-17.369
	c11.523,0.024,23.094,5.749,29.817,17.369H523.016z M373.983,383.275c0,4.481-3.63,8.063-8.063,8.063s-8.063-3.604-8.063-8.063
	c0-74.71,60.608-135.345,135.345-135.345c4.434,0,8.063,3.63,8.063,8.112c0,4.409-3.63,8.063-8.063,8.063
	c-65.823,0-119.218,53.35-119.218,119.168V383.275z M321.948,579.373h342.506v65.431H321.948V579.373z M604.917,254.185
	c0,57.831,46.918,104.775,104.8,104.775c57.855,0,104.8-46.942,104.8-104.775c0-57.879-46.942-104.825-104.8-104.825
	C651.837,149.36,604.917,196.302,604.917,254.185L604.917,254.185z M636.269,263.661c-10.256,0-11.4-16.126,0.755-16.126
	C647.28,247.535,648.4,263.661,636.269,263.661z M663.017,198.131c7.186,7.21-3.362,19.342-11.962,10.792
	C643.845,201.712,654.442,189.556,663.017,198.131z M664.453,312.796c-7.26,7.211-19.439-3.386-10.889-11.961
	C660.849,293.576,673.029,304.197,664.453,312.796z M783.111,244.709c10.255,0,11.4,16.078-0.756,16.078
	C772.1,260.787,770.979,244.709,783.111,244.709z M756.387,310.289c-7.26-7.259,3.337-19.512,11.912-10.889
	C775.559,306.66,764.938,318.84,756.387,310.289z M754.925,195.555c7.26-7.284,19.439,3.362,10.89,11.937
	C758.555,214.751,746.35,204.13,754.925,195.555z M703.038,326.859c0-10.28,16.126-11.377,16.126,0.73
	C719.164,337.869,703.038,339.015,703.038,326.859z M717.776,254.824c0,2.192-0.877,4.141-2.266,5.579l-13.714,16.2
	c-2.875,3.435-7.941,3.825-11.328,0.95c-3.386-2.801-3.824-7.917-0.95-11.303l12.132-14.373v-37.174
	c0-4.506,3.605-8.063,8.063-8.063c4.434,0,8.063,3.556,8.063,8.063L717.776,254.824z M716.339,181.524
	c0,10.231-16.127,11.327-16.127-0.78C700.212,170.489,716.339,169.417,716.339,181.524z M859.94,291.387
	c-2.558,10.889-6.235,21.364-11.034,31.45c-4.409,9.257-19.415,3.337-14.275-7.552c4.287-9.038,7.479-18.392,9.744-28.136
	c1.022-4.336,5.359-7.064,9.671-6.042c4.531,1.047,7.064,5.335,5.92,10.255L859.94,291.387z M571.59,183.133
	c27.941-52.398,83.82-85.137,144.138-82.262l-3.752-2.899c-3.532-2.752-4.189-7.747-1.437-11.279
	c2.703-3.556,7.746-4.19,11.278-1.437l26.821,20.779c5.14,3.728,4.677,11.62-1.535,14.104l-31.863,13.008
	c-4.117,1.705-8.818-0.316-10.475-4.409c-1.657-4.117,0.316-8.843,4.434-10.475l3.288-1.364
	c-53.567-1.267-101.95,27.381-126.72,73.837c-2.096,3.898-6.968,5.384-10.89,3.264c-3.922-2.07-5.384-6.918-3.288-10.84V183.133z
	 M830.711,173.243c-3.557,2.704-8.623,1.949-11.304-1.608v0.024c-6.065-7.941-13.3-15.639-20.974-22.046
	c-3.387-2.875-3.825-7.965-0.95-11.376c2.996-3.557,7.966-3.825,11.863-0.56c8.355,7.113,16.297,15.518,22.923,24.238
	c2.68,3.557,1.998,8.624-1.559,11.303V173.243z M819.676,353.146c3.289,3.239,3.265,8.16-0.268,11.717
	c-7.82,7.941-16.565,15.152-25.871,21.193c-3.751,2.46-8.744,1.34-11.182-2.388c-2.484-3.824-1.437-8.623,2.753-11.376
	c8.405-5.529,16.103-11.961,23.167-19.122c3.094-3.167,8.233-3.191,11.4-0.073V353.146z M855.997,248.907
	c-4.604,0.487-8.405-2.752-8.916-7.747c-1.048-9.964-3.167-19.732-6.334-29.208c-1.413-4.287,0.877-8.818,5.092-10.255
	c4.434-1.438,8.818,0.926,10.426,5.725c3.483,10.694,5.773,21.461,6.919,32.594C863.647,244.498,860.406,248.444,855.997,248.907
	L855.997,248.907z M746.988,406.54l-3.849,0.926l4.507,1.852c4.093,1.754,5.968,6.431,4.287,10.523
	c-1.729,4.116-6.431,6.041-10.523,4.312l-31.767-13.374c-5.432-2.313-6.625-9.573-2.095-13.495l27.771-21.096
	c3.557-2.655,8.6-1.998,11.279,1.534c2.68,3.557,1.997,8.623-1.535,11.279l-2.704,2.07c11.791-2.899,14.567,12.935,4.629,15.493
	V406.54z"/>
</svg>
