<?xml version="1.0" encoding="utf-8"?>
<!-- Generator: Adobe Illustrator 16.0.0, SVG Export Plug-In . SVG Version: 6.00 Build 0)  -->
<!DOCTYPE svg PUBLIC "-//W3C//DTD SVG 1.1//EN" "http://www.w3.org/Graphics/SVG/1.1/DTD/svg11.dtd">
<svg version="1.1" id="Layer_1" xmlns="http://www.w3.org/2000/svg" xmlns:xlink="http://www.w3.org/1999/xlink" x="0px" y="0px"
	 width="550.078px" height="535.243px" viewBox="315.224 96.552 550.078 535.243"
	 enable-background="new 315.224 96.552 550.078 535.243" xml:space="preserve">
<path d="M434.856,489.334c2.338,3.289,1.559,7.845-1.729,10.183c-1.291,0.901-2.753,1.34-4.215,1.34c-2.29,0-4.53-1.071-5.968-3.069
	c-27.819-39.244-42.509-85.455-42.509-133.592c0-46.334,13.69-91.081,39.61-129.402c2.241-3.337,6.796-4.239,10.134-1.949
	c3.337,2.265,4.238,6.796,1.948,10.134c-24.263,35.907-37.1,77.81-37.1,121.22C395.051,409.289,408.815,452.553,434.856,489.334
	L434.856,489.334z M460.239,364.174c0-27.284,7.309-54.031,21.169-77.367c2.047-3.459,0.926-7.941-2.558-10.012
	c-3.459-2.046-7.941-0.926-10.013,2.558c-15.2,25.578-23.215,54.908-23.215,84.825c0,30.475,8.307,60.268,24.02,86.185
	c1.364,2.266,3.775,3.508,6.26,3.508c1.291,0,2.606-0.341,3.801-1.048c3.459-2.095,4.556-6.602,2.46-10.036
	c-14.348-23.63-21.924-50.815-21.924-78.607V364.174z M804.035,183.759c-2.436-3.215-7.04-3.8-10.255-1.339
	c-3.191,2.46-3.801,7.04-1.34,10.231c38.124,49.646,58.27,108.965,58.27,171.521c0,62.58-20.146,121.899-58.27,171.521
	c-2.461,3.215-1.852,7.795,1.34,10.255c1.339,1.023,2.898,1.511,4.433,1.511c2.193,0,4.361-0.975,5.798-2.851
	c40.098-52.204,61.291-114.591,61.291-180.438c0.024-65.823-21.169-128.21-61.267-180.414V183.759z M329.839,364.174
	c0-62.581,20.146-121.9,58.271-171.521c2.46-3.191,1.852-7.795-1.34-10.231c-3.191-2.46-7.795-1.851-10.231,1.34
	c-40.121,52.204-61.314,114.591-61.314,180.414s21.193,128.211,61.29,180.439c1.438,1.875,3.605,2.85,5.798,2.85
	c1.56,0,3.118-0.487,4.434-1.511c3.216-2.46,3.801-7.04,1.34-10.255c-38.1-49.622-58.245-108.94-58.245-171.521L329.839,364.174z
	 M590.277,522.904c-30.012,0-54.445,24.409-54.445,54.445c0,30.012,24.409,54.445,54.445,54.445
	c30.012,0,54.445-24.409,54.445-54.445C644.722,547.338,620.288,522.904,590.277,522.904z M760.507,234.772
	c-2.241-3.337-6.797-4.239-10.134-1.949c-3.362,2.265-4.239,6.796-1.949,10.134c24.263,35.907,37.101,77.81,37.101,121.22
	c0,45.115-13.764,88.38-39.829,125.161c-2.339,3.288-1.559,7.844,1.754,10.182c1.291,0.901,2.753,1.34,4.215,1.34
	c2.289,0,4.555-1.071,5.968-3.069c27.819-39.244,42.509-85.454,42.509-133.592C800.116,317.841,786.426,273.093,760.507,234.772
	L760.507,234.772z M615.808,96.552h-51.084c-9.865,0-19.025,3.946-25.797,11.133c-6.772,7.162-10.183,16.541-9.623,26.407
	l19.488,340.242c0.22,3.849,3.411,6.894,7.309,6.894h68.355c3.873,0,7.064-3.021,7.308-6.894l19.513-340.242
	c0.561-9.841-2.85-19.22-9.622-26.407C634.858,100.499,625.698,96.552,615.808,96.552L615.808,96.552z M701.699,276.792
	c-3.459,2.046-4.629,6.529-2.559,10.012c13.838,23.337,21.169,50.084,21.169,77.366c0,27.795-7.575,54.981-21.924,78.589
	c-2.095,3.46-0.999,7.941,2.461,10.037c1.169,0.706,2.484,1.048,3.775,1.048c2.484,0,4.872-1.268,6.261-3.509
	c15.712-25.919,24.02-55.712,24.02-86.185c0-29.914-8.039-59.244-23.216-84.825C709.664,275.867,705.182,274.722,701.699,276.792
	L701.699,276.792z"/>
</svg>
