<?xml version="1.0" encoding="utf-8"?>
<!-- Generator: Adobe Illustrator 16.0.0, SVG Export Plug-In . SVG Version: 6.00 Build 0)  -->
<!DOCTYPE svg PUBLIC "-//W3C//DTD SVG 1.1//EN" "http://www.w3.org/Graphics/SVG/1.1/DTD/svg11.dtd">
<svg version="1.1" id="Layer_1" xmlns="http://www.w3.org/2000/svg" xmlns:xlink="http://www.w3.org/1999/xlink" x="0px" y="0px"
	 width="511.374px" height="492.653px" viewBox="334.586 117.848 511.374 492.653"
	 enable-background="new 334.586 117.848 511.374 492.653" xml:space="preserve">
<path d="M845.96,348.583c0,47.697-35.932,87.183-82.144,92.789c-9.72-87.183-83.803-155.151-173.542-155.151
	c-89.428,0-163.383,67.601-173.423,154.347c-43.167-7.552-77.03-42.729-81.632-87.744c-0.438-3.361-0.634-6.918-0.634-10.475
	c0-51.327,38.854-93.98,89.353-99.218c8.307-36.735,40.804-62.924,79.025-62.924c5.115,0,10.158,0.487,15.104,1.438
	c24.993-39.488,68.967-63.796,115.856-63.796c75.639,0,137.197,61.558,137.197,137.197v1.924
	c43.02,8.672,74.834,47.088,74.834,91.616L845.96,348.583z M738.703,442.002c0.877,6.163,1.242,12.472,1.242,18.83
	c0,82.63-67.039,149.669-149.67,149.669c-82.63,0-149.669-67.039-149.669-149.669c0-6.358,0.365-12.667,1.242-18.831
	c9.233-73.786,72.153-130.836,148.429-130.836s139.192,57.052,148.428,130.836L738.703,442.002z M668.034,505.243
	c0-6.87-5.604-12.473-12.473-12.473H617.34c-6.869,0-12.472,5.603-12.472,12.473c0,6.918,5.603,12.473,12.472,12.473h10.427
	c-10.913,8.55-24.579,13.276-39.05,13.276c-35.225,0-63.921-28.697-63.921-63.922c0-6.87-5.603-12.473-12.473-12.473
	c-6.869,0-12.472,5.604-12.472,12.473c0,49.013,39.853,88.866,88.865,88.866c19.902,0,39.05-6.796,54.373-18.709v6.236
	c0,6.87,5.554,12.473,12.473,12.473c6.869,0,12.472-5.603,12.472-12.473V505.243z M677.583,467.07
	c0-10.986-1.998-21.461-5.676-31.181c-12.595-33.666-45.14-57.686-83.191-57.686c-20.146,0-39.099,6.602-54.373,18.587v-6.114
	c0-6.87-5.554-12.473-12.472-12.473c-6.87,0-12.473,5.604-12.473,12.473v38.222c0,2.558,0.804,4.993,2.192,6.991
	c2.192,3.313,5.992,5.481,10.279,5.481h38.222c4.312,0,8.112-2.193,10.354-5.481c1.364-1.998,2.119-4.434,2.119-6.991
	c0-6.919-5.603-12.473-12.473-12.473h-10.426c10.986-8.551,24.579-13.276,39.049-13.276c23.946,0,44.848,13.228,55.761,32.74
	c5.237,9.232,8.161,19.902,8.161,31.181c0,6.87,5.603,12.473,12.472,12.473c6.87,0,12.473-5.603,12.473-12.473H677.583z"/>
</svg>
