<?xml version="1.0" encoding="utf-8"?>
<!-- Generator: Adobe Illustrator 16.0.0, SVG Export Plug-In . SVG Version: 6.00 Build 0)  -->
<!DOCTYPE svg PUBLIC "-//W3C//DTD SVG 1.1//EN" "http://www.w3.org/Graphics/SVG/1.1/DTD/svg11.dtd">
<svg version="1.1" id="Layer_1" xmlns="http://www.w3.org/2000/svg" xmlns:xlink="http://www.w3.org/1999/xlink" x="0px" y="0px"
	 width="517.601px" height="486.782px" viewBox="331.513 120.787 517.601 486.782"
	 enable-background="new 331.513 120.787 517.601 486.782" xml:space="preserve">
<path d="M846.789,473.818c6.821,63.192-1.632,113.493-21.924,131.204c-7.771,6.431-28.258,0.438-54.836-16.028
	c-13.836-8.575-29.621-13.886-45.699-15.299c-1.267-0.121-2.558-0.243-3.8-0.365c-43.727-4.774-78.097-42.533-79.974-87.868
	c-1.535-36.931,0.195-74.592,5.091-112.152c17.979,15.907,33.203,32.96,45.627,51.278c-1.485,23.191-5.529,39.439-12.059,48.233
	c-2.046,2.777-1.485,6.675,1.292,8.721c1.12,0.828,2.436,1.219,3.702,1.219c1.9,0,3.8-0.877,5.019-2.51
	c6.236-8.404,10.475-20.998,12.862-38.196c11.912,21.192,20.56,43.945,25.87,68.404c0.633,2.924,3.216,4.921,6.09,4.921
	c0.438,0,0.877-0.049,1.315-0.146c3.362-0.731,5.506-4.044,4.774-7.406c-5.919-27.283-15.761-52.521-29.451-75.882
	c26.576-2.192,49.158,11.255,68.791,40.949c1.194,1.803,3.191,2.802,5.214,2.802c1.169,0,2.387-0.341,3.435-1.023
	c2.874-1.9,3.654-5.773,1.754-8.647c-7.747-11.718-16.078-21.193-24.97-28.526c8.892-1.826,17.345-5.651,25.505-11.619
	c2.777-2.047,3.362-5.944,1.34-8.721c-2.046-2.777-5.943-3.387-8.721-1.34c-11.157,8.185-22.898,11.498-35.979,10.158
	c-0.073,0-0.146,0.024-0.243,0.024c-13.447-6.236-27.918-8.161-43.386-5.725c-15.055-22.777-34.031-43.727-57.149-62.924
	c-0.683-1.072-1.705-1.876-2.924-2.363c-14.884-12.106-31.326-23.556-49.548-34.323c-1.072-0.634-2.266-0.804-3.436-0.73
	c-1.218-0.073-2.46,0.072-3.581,0.73c-18.221,10.768-34.664,22.241-49.548,34.348c-1.219,0.487-2.217,1.267-2.899,2.339
	c-23.117,19.22-42.118,40.146-57.149,62.923c-15.469-2.411-29.963-0.486-43.385,5.726c-0.073,0-0.146-0.024-0.244-0.024
	c-13.058,1.34-24.823-1.998-35.979-10.158c-2.777-2.047-6.675-1.438-8.721,1.34c-2.046,2.776-1.438,6.674,1.34,8.721
	c8.136,5.968,16.589,9.792,25.505,11.619c-8.892,7.333-17.247,16.809-24.993,28.526c-1.9,2.874-1.121,6.747,1.754,8.647
	c1.071,0.707,2.241,1.023,3.435,1.023c2.021,0,3.995-0.975,5.213-2.802c19.658-29.695,42.216-43.142,68.792-40.949
	c-13.69,23.386-23.532,48.599-29.452,75.882c-0.73,3.362,1.413,6.675,4.774,7.406c0.438,0.097,0.901,0.146,1.34,0.146
	c2.875,0,5.457-1.997,6.09-4.921c5.311-24.481,13.959-47.21,25.871-68.404c2.387,17.198,6.626,29.792,12.861,38.196
	c1.219,1.656,3.118,2.509,5.019,2.509c1.291,0,2.582-0.39,3.703-1.218c2.776-2.046,3.337-5.968,1.291-8.721
	c-6.529-8.794-10.572-25.042-12.059-48.233c12.448-18.318,27.649-35.396,45.627-51.278c4.872,37.563,6.602,75.222,5.091,112.152
	c-1.875,45.334-36.248,83.091-79.948,87.843c-1.267,0.146-2.533,0.269-3.824,0.366c-16.078,1.437-31.863,6.723-45.7,15.298
	c-26.552,16.467-47.063,22.46-54.712,16.126c-20.414-17.808-28.867-68.137-22.047-131.328
	C344.87,371.505,395.418,246.63,483.48,198.25c9.987-5.481,21.851-5.262,31.766,0.609c10.183,6.017,16.249,16.614,16.249,28.38
	v87.014c-17.686,19.05-33.154,28.939-46.918,29.963c-3.069,0.244-6.065-0.853-8.502-2.802c-0.098-0.121-0.243-0.194-0.365-0.292
	c-1.9-1.632-3.41-3.775-4.238-6.285l-6.456-19.975c-2.314-7.187-7.625-12.984-14.567-15.932l-9.33-3.971
	c-3.167-1.364-6.821,0.122-8.185,3.313c-1.34,3.167,0.121,6.821,3.313,8.185l9.306,3.947c3.605,1.534,6.383,4.555,7.601,8.307
	l6.456,19.975c0.122,0.366,0.292,0.683,0.438,1.023c-22.972,1.486-40.414,8.989-52.034,22.558c-2.24,2.606-1.924,6.553,0.683,8.794
	c1.169,0.999,2.606,1.511,4.044,1.511c1.754,0,3.508-0.73,4.75-2.192c10.597-12.399,27.966-18.587,51.692-18.44
	c4.653,3.386,10.354,5.188,16.321,4.75c21.827-1.632,44.678-18.708,71.936-53.787c11.449-14.714,17.734-32.935,17.734-51.303
	l-0.073-124.088c0-4.166,7.868-6.723,15.177-6.723c7.284,0,15.152,2.583,15.152,6.723v124.088c0,18.368,6.284,36.589,17.734,51.303
	c27.259,35.079,50.109,52.155,71.935,53.787c0.609,0.049,1.218,0.073,1.827,0.073c5.335,0,10.378-1.754,14.567-4.823
	c23.605-0.146,41.022,6.065,51.644,18.44c1.218,1.438,2.972,2.192,4.726,2.192c1.438,0,2.874-0.487,4.044-1.511
	c2.606-2.24,2.923-6.188,0.682-8.794c-11.596-13.568-29.037-21.096-52.033-22.558c0.121-0.341,0.316-0.682,0.414-1.023l6.455-19.975
	c1.219-3.752,3.971-6.772,7.576-8.307l9.33-3.971c3.167-1.339,4.652-5.018,3.313-8.185c-1.34-3.167-5.018-4.628-8.185-3.313
	l-9.33,3.971c-6.942,2.948-12.253,8.77-14.567,15.932l-6.455,19.975c-0.854,2.607-2.412,4.775-4.386,6.407
	c-0.049,0.049-0.121,0.097-0.17,0.146c-2.437,1.974-5.481,3.069-8.551,2.851c-13.764-1.023-29.232-10.913-46.918-29.963v-87.015
	c0-11.766,6.066-22.362,16.249-28.38c9.914-5.871,21.803-6.09,31.766-0.609c88.112,48.453,138.656,173.298,149.694,275.567
	L846.789,473.818z"/>
</svg>
