<?xml version="1.0" encoding="utf-8"?>
<!-- Generator: Adobe Illustrator 16.0.0, SVG Export Plug-In . SVG Version: 6.00 Build 0)  -->
<!DOCTYPE svg PUBLIC "-//W3C//DTD SVG 1.1//EN" "http://www.w3.org/Graphics/SVG/1.1/DTD/svg11.dtd">
<svg version="1.1" id="Layer_1" xmlns="http://www.w3.org/2000/svg" xmlns:xlink="http://www.w3.org/1999/xlink" x="0px" y="0px"
	 width="583.75px" height="532.997px" viewBox="298.391 97.673 583.75 532.997"
	 enable-background="new 298.391 97.673 583.75 532.997" xml:space="preserve">
<path d="M634.464,247.12c26.699-2.777,49.915-18.66,62.168-42.484c5.627-10.962,7.966-22.752,6.772-34.104
	c-2.29-21.583-15.08-40.073-34.202-49.427c-11.328-5.554-24.142-6.333-36.103-2.241c-11.961,4.093-21.583,12.594-27.138,23.897
	c-7.771,15.883-2.972,34.835,11.425,45.066c7.625,5.433,17.077,7.089,25.237,4.434c3.118-1.023,5.993-2.558,8.502-4.604
	c2.802-2.241,6.675-2.68,9.891-1.096c2.874,1.413,4.823,4.166,5.188,7.381c0.365,3.191-0.853,6.139-3.313,8.136
	c-13.738,11.06-32.813,13.203-48.599,5.481c-13.058-6.382-22.874-17.515-27.601-31.327c-4.726-13.813-3.824-28.599,2.583-41.656
	c15.955-32.619,55.492-46.163,88.111-30.207c22.484,11.011,38.27,31.546,43.337,56.37c3.702,18.149,0.608,37.563-8.721,54.64
	c-15.347,28.111-43.63,46.893-75.59,50.231c-3.653,0.39-22.703,0.828-92.764,0.828c-62.605,0-140.071-0.366-170.473-0.536
	c-2.485,0-4.8-0.999-6.554-2.752s-2.704-4.117-2.68-6.602c0.024-5.115,4.19-9.232,9.281-9.232h0.049
	c91.373,0.487,249.206,0.974,261.217-0.219L634.464,247.12z"/>
<path d="M871.853,292.457c-15.371,28.111-43.63,46.894-75.59,50.23c-3.653,0.39-22.728,0.828-92.764,0.828
	c-63.484,0-362.967-0.365-395.831-0.535c-2.485,0-4.799-0.999-6.554-2.753c-1.754-1.778-2.703-4.117-2.68-6.602
	c0.024-5.116,4.19-9.258,9.282-9.258h0.049c103.458,0.536,475.025,0.926,486.568-0.219c26.698-2.777,49.914-18.66,62.168-42.484
	c5.627-10.962,7.965-22.752,6.771-34.104c-2.29-21.583-15.079-40.073-34.202-49.427c-23.41-11.449-51.766-1.729-63.217,21.657
	c-7.771,15.858-2.972,34.835,11.425,45.066c7.649,5.433,17.077,7.089,25.237,4.409c3.118-1.023,5.969-2.558,8.502-4.604
	c2.802-2.241,6.675-2.68,9.891-1.096c2.874,1.413,4.823,4.166,5.188,7.381c0.365,3.191-0.853,6.139-3.313,8.136
	c-13.738,11.06-32.813,13.203-48.599,5.481c-27.016-13.228-38.245-45.968-25.018-72.982c15.956-32.619,55.492-46.162,88.111-30.207
	c22.484,11.011,38.27,31.546,43.337,56.37c3.702,18.148,0.608,37.563-8.721,54.64L871.853,292.457z"/>
<path d="M720.699,567.605c-5.067,24.823-20.854,45.358-43.337,56.369c-32.619,15.956-72.153,2.412-88.112-30.207
	c-6.382-13.057-7.308-27.843-2.582-41.655c4.727-13.813,14.519-24.921,27.601-31.327c6.31-3.094,13.13-4.604,19.927-4.604
	c10.23,0,20.413,3.435,28.672,10.085c2.461,1.998,3.679,4.945,3.313,8.137c-0.365,3.216-2.29,5.969-5.188,7.381
	c-3.216,1.56-7.089,1.146-9.891-1.096c-2.533-2.021-5.384-3.581-8.502-4.604c-8.16-2.68-17.612-1.022-25.237,4.434
	c-14.396,10.256-19.195,29.208-11.425,45.067c5.53,11.327,15.177,19.805,27.138,23.896c11.961,4.093,24.774,3.289,36.078-2.241
	c19.146-9.354,31.937-27.843,34.202-49.427c1.193-11.352-1.146-23.166-6.772-34.104c-12.229-23.824-35.469-39.683-62.192-42.484
	c-11.985-1.193-169.812-0.682-261.191-0.219h-0.049c-5.091,0-9.257-4.142-9.281-9.258c0-2.484,0.95-4.823,2.68-6.602
	c1.729-1.754,4.068-2.753,6.554-2.753c30.401-0.17,107.867-0.535,170.473-0.535c70.058,0,89.135,0.463,92.764,0.828
	c31.961,3.337,60.219,22.119,75.59,50.23c9.33,17.077,12.424,36.492,8.721,54.641L720.699,567.605z"/>
<path d="M880.577,490.532c-5.067,24.823-20.853,45.358-43.337,56.369c-32.619,15.956-72.153,2.412-88.111-30.207
	c-13.229-27.015-1.998-59.755,25.018-72.982c6.309-3.094,13.13-4.604,19.927-4.604c10.23,0,20.438,3.435,28.672,10.085
	c2.46,1.997,3.679,4.945,3.313,8.137c-0.365,3.215-2.29,5.968-5.189,7.381c-3.215,1.559-7.088,1.145-9.89-1.097
	c-2.533-2.021-5.384-3.581-8.502-4.604c-8.16-2.68-17.588-1.023-25.237,4.434c-14.373,10.255-19.195,29.208-11.425,45.066
	c11.449,23.41,39.829,33.13,63.217,21.656c19.123-9.378,31.912-27.843,34.202-49.427c1.193-11.352-1.146-23.166-6.772-34.104
	c-12.229-23.824-35.468-39.683-62.191-42.484c-11.523-1.145-383.092-0.755-486.55-0.195h-0.049c-5.092,0-9.258-4.141-9.281-9.257
	c0-2.484,0.949-4.823,2.68-6.602c1.754-1.754,4.067-2.753,6.553-2.753c32.861-0.17,332.347-0.536,395.831-0.536
	c70.058,0,89.109,0.463,92.764,0.829c31.961,3.337,60.219,22.119,75.59,50.23c9.33,17.077,12.424,36.492,8.721,54.64
	L880.577,490.532z"/>
</svg>
