<?xml version="1.0" encoding="utf-8"?>
<!-- Generator: Adobe Illustrator 16.0.0, SVG Export Plug-In . SVG Version: 6.00 Build 0)  -->
<!DOCTYPE svg PUBLIC "-//W3C//DTD SVG 1.1//EN" "http://www.w3.org/Graphics/SVG/1.1/DTD/svg11.dtd">
<svg version="1.1" id="Layer_1" xmlns="http://www.w3.org/2000/svg" xmlns:xlink="http://www.w3.org/1999/xlink" x="0px" y="0px"
	 width="588.949px" height="588.933px" viewBox="295.844 69.707 588.949 588.933"
	 enable-background="new 295.844 69.707 588.949 588.933" xml:space="preserve">
<path d="M590.324,69.707c162.871,0,294.469,131.64,294.469,294.518c0,76.419-28.989,145.94-76.537,198.219
	c-45.822-72.01-126.408-119.729-217.9-119.729c-91.522,0-172.082,47.722-217.899,119.754
	c-47.6-52.277-76.612-121.824-76.612-198.243c0-162.872,131.641-294.518,294.518-294.518H590.324z M590.324,148.539
	c-76.369,0-138.706,62.362-138.706,138.731c0,76.344,62.362,138.656,138.706,138.656c76.369,0,138.631-62.289,138.631-138.656
	C728.955,210.901,666.666,148.539,590.324,148.539z M590.324,187.125c55.541,0,100.147,44.604,100.147,100.147
	s-44.604,100.123-100.147,100.123s-100.191-44.579-100.191-100.123C490.133,231.729,534.786,187.125,590.324,187.125
	L590.324,187.125z M590.324,481.25c80.902,0,151.372,43.605,189.476,108.523c-51.181,42.995-117.247,68.866-189.476,68.866
	c-72.228,0-138.295-25.846-189.475-68.842C438.949,524.854,509.422,481.25,590.324,481.25z"/>
</svg>
