<?xml version="1.0" encoding="utf-8"?>
<!-- Generator: Adobe Illustrator 16.0.0, SVG Export Plug-In . SVG Version: 6.00 Build 0)  -->
<!DOCTYPE svg PUBLIC "-//W3C//DTD SVG 1.1//EN" "http://www.w3.org/Graphics/SVG/1.1/DTD/svg11.dtd">
<svg version="1.1" id="Layer_1" xmlns="http://www.w3.org/2000/svg" xmlns:xlink="http://www.w3.org/1999/xlink" x="0px" y="0px"
	 width="568.01px" height="579.937px" viewBox="306.292 74.166 568.01 579.937"
	 enable-background="new 306.292 74.166 568.01 579.937" xml:space="preserve">
<path d="M479.706,413.065h79.587c1.242-6.236,4.36-11.79,8.672-16.077c5.676-5.75,13.593-9.282,22.314-9.282
	c8.721,0,16.662,3.557,22.313,9.282c4.312,4.312,7.43,9.841,8.672,16.077h79.587c1.242-6.236,4.312-11.79,8.599-16.077
	c5.749-5.75,13.666-9.282,22.314-9.282c8.721,0,16.662,3.557,22.582,9.477c5.676,5.919,9.037,13.666,9.037,22.144
	c0,8.721-3.557,16.662-9.232,22.313c-5.749,5.749-13.666,9.281-22.387,9.281s-16.59-3.557-22.314-9.281
	c-4.312-4.312-7.356-9.841-8.599-16.077h-79.587c-1.242,6.236-4.36,11.79-8.867,16.272c-5.92,5.676-13.666,9.11-22.144,9.11
	c-8.721,0-16.663-3.557-22.313-9.281c-4.313-4.312-7.431-9.842-8.673-16.077h-79.586c-1.243,6.235-4.313,11.79-8.6,16.077
	c-5.749,5.749-13.666,9.281-22.313,9.281c-8.721,0-16.59-3.557-22.314-9.281c-5.749-5.676-9.281-13.593-9.281-22.313
	c0-8.673,3.557-16.59,9.281-22.314c5.677-5.749,13.594-9.281,22.314-9.281c8.672,0,16.589,3.557,22.509,9.477
	c4.312,4.481,7.235,9.841,8.429,15.907V413.065z M462.24,405.757c-3.436-3.435-8.234-5.603-13.472-5.603
	c-5.311,0-10.109,2.192-13.545,5.603c-3.483,3.436-5.603,8.234-5.603,13.545s2.119,10.036,5.603,13.544
	c3.435,3.436,8.233,5.555,13.545,5.555c5.237,0,10.036-2.119,13.472-5.555c3.483-3.483,5.603-8.233,5.603-13.544
	C467.843,414.186,465.845,409.509,462.24,405.757z M745.309,405.757c-3.436-3.435-8.234-5.603-13.545-5.603
	c-5.237,0-10.036,2.192-13.472,5.603c-3.483,3.436-5.603,8.234-5.603,13.545s2.119,10.036,5.603,13.544
	c3.435,3.436,8.233,5.555,13.472,5.555c5.311,0,10.109-2.119,13.545-5.555c3.435-3.483,5.603-8.233,5.603-13.544
	C750.911,414.186,748.913,409.509,745.309,405.757z M615.713,158.547H337.279c-8.355,0-16.028,3.362-21.754,8.989
	c-5.749,5.797-9.232,13.544-9.232,22.021v307.209c0,8.55,3.483,16.272,9.11,21.899c5.603,5.603,13.35,9.11,21.899,9.11h506.014
	c8.355,0,16.029-3.361,21.754-8.916c5.749-5.798,9.232-13.544,9.232-22.07V189.581c0-8.478-3.483-16.224-9.11-21.827
	c-4.556-4.604-10.548-7.795-17.271-8.794c1.194,6.723,1.803,13.666,1.803,20.706c0,24.458-9.476,51.887-23.751,78.832
	c-17.394,32.619-41.973,64.602-65.044,89.109l-2.119,2.192c-7.674,6.919-17.345,10.475-26.991,10.475
	c-9.793,0-19.634-3.604-27.308-10.84l-2.119-2.119c-23.021-24.507-47.405-56.321-64.676-88.867
	c-14.349-26.869-23.824-54.323-23.824-78.757c0-7.161,0.633-14.226,1.875-21.071L615.713,158.547z M648.649,252.577
	c16.711,31.425,40.413,62.29,62.799,86.116l1.681,1.682c5.237,4.921,11.985,7.308,18.636,7.308c6.674,0,13.275-2.362,18.514-7.112
	l1.681-1.682c22.461-23.872,46.212-54.811,62.999-86.309c13.397-25.188,22.265-50.693,22.265-72.958
	c0-29.135-11.79-55.492-30.864-74.591c-19.074-19.074-45.407-30.864-74.592-30.864c-29.135,0-55.492,11.79-74.517,30.864
	c-19.146,19.074-30.937,45.457-30.937,74.591c0,22.265,8.915,47.771,22.313,72.958L648.649,252.577z M731.765,109.069
	c19.464,0,37.101,7.917,49.816,20.633c12.789,12.838,20.706,30.426,20.706,49.89s-7.917,37.101-20.633,49.817
	c-12.789,12.789-30.426,20.706-49.89,20.706s-37.101-7.917-49.817-20.633c-12.789-12.789-20.633-30.426-20.633-49.89
	s7.868-37.101,20.633-49.817C694.664,116.986,712.325,109.069,731.765,109.069L731.765,109.069z M772.86,138.569
	c-10.548-10.475-25.066-17.028-41.095-17.028c-16.029,0-30.499,6.553-41.022,17.028c-10.476,10.475-16.955,25.018-16.955,41.022
	c0,16.029,6.479,30.547,16.955,41.022c10.548,10.475,25.018,17.028,41.022,17.028c16.028,0,30.547-6.48,41.095-17.028
	c10.476-10.475,16.955-25.018,16.955-41.022C789.815,163.563,783.335,149.044,772.86,138.569z M634.104,540.17h-87.675v59.926
	h-84.313c-7.479,0-14.275,2.996-19.147,7.868c-4.872,4.921-7.917,11.669-7.917,19.147c0,7.43,3.045,14.226,7.917,19.074
	c4.872,4.872,11.669,7.917,19.147,7.917H718.48c7.431,0,14.227-3.045,19.074-7.917c4.872-4.872,7.917-11.669,7.917-19.074
	c0-7.479-3.045-14.227-7.917-19.074c-4.872-4.921-11.668-7.917-19.074-7.917h-84.382L634.104,540.17z"/>
</svg>
