<?xml version="1.0" encoding="utf-8"?>
<!-- Generator: Adobe Illustrator 16.0.0, SVG Export Plug-In . SVG Version: 6.00 Build 0)  -->
<!DOCTYPE svg PUBLIC "-//W3C//DTD SVG 1.1//EN" "http://www.w3.org/Graphics/SVG/1.1/DTD/svg11.dtd">
<svg version="1.1" id="Layer_1" xmlns="http://www.w3.org/2000/svg" xmlns:xlink="http://www.w3.org/1999/xlink" x="0px" y="0px"
	 width="525.717px" height="529.188px" viewBox="327.427 99.589 525.717 529.188"
	 enable-background="new 327.427 99.589 525.717 529.188" xml:space="preserve">
<path d="M770.882,103.032c-45.433,0-82.263,36.832-82.263,82.262s36.833,82.262,82.263,82.262c45.432,0,82.262-36.833,82.262-82.262
	C853.119,139.861,816.312,103.032,770.882,103.032z M815.315,167.976l-49.938,49.938c-4.214,4.214-11.083,4.214-15.298,0
	l-23.605-23.605c-4.214-4.214-4.214-11.083,0-15.298c4.215-4.214,11.084-4.214,15.299,0l15.955,15.956l42.289-42.289
	c4.215-4.214,11.084-4.214,15.299,0C819.529,156.892,819.529,163.737,815.315,167.976L815.315,167.976z M811.076,294.87
	c9.817,27.187,14.787,55.761,14.787,84.676c0,68.816-27.894,131.129-72.983,176.223c-45.091,45.092-107.406,73.008-176.223,73.008
	c-68.817,0-131.129-27.893-176.224-72.982c-45.115-45.14-73.007-107.432-73.007-176.248c0-68.817,27.893-131.129,72.982-176.224
	c45.091-45.091,107.406-72.982,176.223-72.982c23.946,0,47.819,3.411,70.769,10.231l-13.909-31.912
	c-1.438-3.264,0.073-7.089,3.337-8.526c3.265-1.437,7.089,0.073,8.526,3.337l19.708,45.115c1.437,3.265-0.073,7.089-3.338,8.526
	l-45.115,19.708c-3.265,1.438-7.089-0.073-8.526-3.337c-1.438-3.265,0.073-7.089,3.338-8.526l29.427-12.862
	c-20.9-5.871-42.483-8.818-64.214-8.818c-65.237,0-124.288,26.431-167.037,69.185c-42.752,42.776-69.21,101.85-69.21,167.087
	s26.432,124.288,69.185,167.037c42.753,42.753,101.801,69.185,167.037,69.185c65.237,0,124.288-26.431,167.038-69.185
	c42.749-42.754,69.185-101.8,69.185-167.037c0-27.381-4.678-54.566-13.983-80.316c-1.193-3.361,0.536-7.064,3.897-8.258
	C806.181,289.754,809.859,291.509,811.076,294.87L811.076,294.87z M576.632,370.241c5.14,0,9.281,4.166,9.281,9.281
	c0,5.141-4.166,9.281-9.281,9.281c-5.141,0-9.282-4.165-9.282-9.281C567.35,374.407,571.516,370.241,576.632,370.241z
	 M419.678,379.547c0,86.696,70.283,156.979,156.979,156.979c86.696,0,156.979-70.282,156.979-156.979
	c0-86.696-70.282-156.978-156.979-156.978C489.961,222.569,419.678,292.851,419.678,379.547z M712.145,379.547
	c0,37.417-15.177,71.305-39.683,95.808c-24.531,24.53-58.392,39.683-95.808,39.683c-37.415,0-71.305-15.177-95.807-39.683
	c-24.531-24.531-39.684-58.392-39.684-95.808c0-37.415,15.177-71.305,39.684-95.807c24.53-24.531,58.392-39.683,95.807-39.683
	c37.416,0,71.306,15.177,95.808,39.683C696.968,308.246,712.145,342.132,712.145,379.547L712.145,379.547z M490.004,292.895
	c-22.168,22.168-35.883,52.813-35.883,86.627c0,33.837,13.715,64.458,35.883,86.628c22.168,22.168,52.813,35.883,86.628,35.883
	c33.836,0,64.457-13.715,86.627-35.883c22.168-22.168,35.883-52.813,35.883-86.628c0-33.836-13.715-64.457-35.883-86.627
	c-22.168-22.168-52.813-35.882-86.627-35.882C542.795,257.012,512.174,270.727,490.004,292.895z M519.797,281.08
	c3.094-1.803,7.064-0.731,8.843,2.363l2.168,3.751c1.803,3.094,0.73,7.064-2.363,8.843c-3.094,1.802-7.064,0.731-8.843-2.363
	l-2.168-3.751C515.631,286.829,516.703,282.883,519.797,281.08z M469.42,386.023c-3.581,0-6.48-2.899-6.48-6.48
	s2.898-6.479,6.48-6.479h4.312c3.581,0,6.48,2.898,6.48,6.479s-2.899,6.48-6.48,6.48H469.42z M490.783,436.571l-3.751,2.168
	c-3.094,1.803-7.064,0.73-8.843-2.363c-1.803-3.094-0.731-7.064,2.363-8.843l3.751-2.168c3.094-1.803,7.064-0.731,8.843,2.362
	S493.877,434.792,490.783,436.571z M493.147,331.335c-1.803,3.094-5.749,4.141-8.843,2.362l-3.751-2.168
	c-3.094-1.803-4.142-5.749-2.363-8.843c1.803-3.094,5.749-4.142,8.843-2.363l3.751,2.169
	C493.877,324.271,494.925,328.241,493.147,331.335z M530.783,471.893l-2.144,3.728c-1.803,3.094-5.749,4.142-8.843,2.363
	c-3.094-1.803-4.142-5.749-2.363-8.844l2.168-3.751c1.803-3.094,5.749-4.142,8.844-2.363
	C531.539,464.828,532.586,468.774,530.783,471.893L530.783,471.893z M583.134,486.753c0,3.581-2.899,6.479-6.48,6.479
	s-6.479-2.898-6.479-6.479v-4.313c0-3.581,2.898-6.479,6.479-6.479s6.48,2.898,6.48,6.479V486.753z M683.836,373.041
	c3.581,0,6.48,2.899,6.48,6.48s-2.899,6.479-6.48,6.479h-4.312c-3.581,0-6.48-2.898-6.48-6.479s2.899-6.48,6.48-6.48H683.836z
	 M662.496,322.493l3.752-2.168c3.094-1.803,7.064-0.73,8.843,2.363c1.803,3.094,0.73,7.064-2.363,8.843l-3.751,2.168
	c-3.094,1.803-7.064,0.731-8.844-2.362C658.331,328.243,659.403,324.272,662.496,322.493z M660.133,427.729
	c1.803-3.094,5.75-4.141,8.844-2.362l3.751,2.168c3.094,1.803,4.142,5.749,2.363,8.843c-1.803,3.094-5.749,4.142-8.843,2.363
	l-3.752-2.168C659.403,434.795,658.331,430.824,660.133,427.729z M622.473,287.196l2.168-3.751c1.803-3.094,5.749-4.142,8.843-2.363
	c3.094,1.803,4.141,5.749,2.362,8.843l-2.168,3.752c-1.803,3.094-5.749,4.141-8.843,2.363
	C621.741,294.237,620.67,290.291,622.473,287.196z M624.835,463.026c3.094-1.802,7.064-0.73,8.843,2.363l2.168,3.752
	c1.803,3.094,0.731,7.064-2.362,8.843c-3.094,1.803-7.064,0.73-8.843-2.363l-2.168-3.751
	C620.67,468.776,621.741,464.83,624.835,463.026z M587.443,306.953v53.104c7.064,3.923,11.449,11.353,11.449,19.464
	c0,12.303-9.964,22.266-22.266,22.266c-4.19,0-8.112-1.169-11.474-3.191l-29.598,17.102c-5.164,2.996-11.766,1.218-14.738-3.923
	c-2.996-5.164-1.218-11.766,3.922-14.737l29.623-17.102c-0.146-8.258,4.263-15.858,11.448-19.854v-53.105
	c0-5.968,4.848-10.815,10.816-10.815C582.594,296.137,587.443,300.984,587.443,306.953L587.443,306.953z M583.13,272.337v4.312
	c0,3.581-2.898,6.48-6.479,6.48s-6.48-2.899-6.48-6.48v-4.312c0-3.581,2.899-6.48,6.48-6.48
	C580.207,265.833,583.13,268.731,583.13,272.337z"/>
</svg>
